<?xml version="1.0" standalone="no"?>
<!DOCTYPE svg PUBLIC "-//W3C//DTD SVG 20010904//EN"
 "http://www.w3.org/TR/2001/REC-SVG-20010904/DTD/svg10.dtd">
<svg version="1.0" xmlns="http://www.w3.org/2000/svg"
 width="260.000000pt" height="260.000000pt" viewBox="0 0 260.000000 260.000000"
 preserveAspectRatio="xMidYMid meet">
<metadata>
Created by potrace 1.11, written by Peter Selinger 2001-2013
</metadata>
<g transform="translate(0.000000,260.000000) scale(0.100000,-0.100000)"
fill="#000000" stroke="none">
<path d="M1239 2530 c-1 -28 -8 -376 -14 -750 -3 -206 -8 -494 -10 -640 -3
-146 -7 -413 -10 -593 l-5 -328 53 37 53 37 -1 1093 0 1094 -32 32 c-22 22
-33 28 -34 18z"/>
<path d="M1449 2472 l-41 -39 2 -419 c1 -230 4 -570 5 -754 2 -184 4 -482 5
-663 1 -234 4 -327 12 -327 6 0 39 5 74 11 l62 11 -3 81 c-2 45 -6 125 -9 177
-3 52 -8 151 -11 220 -3 69 -8 163 -10 210 -4 95 -15 356 -20 500 -9 226 -19
679 -19 848 0 100 -2 182 -3 182 -1 0 -21 -17 -44 -38z"/>
<path d="M1051 2403 c-1 -32 -4 -71 -6 -88 -2 -16 -6 -73 -10 -125 -3 -52 -7
-122 -10 -155 -12 -157 -15 -196 -20 -270 -7 -113 -15 -220 -20 -290 -5 -58
-11 -151 -20 -285 -7 -103 -15 -220 -20 -290 -9 -106 -19 -248 -30 -410 -2
-30 -7 -97 -10 -147 l-7 -93 59 6 c87 9 92 10 99 16 6 7 9 55 19 323 3 88 8
207 10 265 3 58 7 166 10 240 3 74 7 189 10 255 3 66 7 185 10 265 3 80 7 188
10 240 2 52 7 174 11 270 3 96 7 196 8 222 2 45 0 48 -41 77 -24 17 -45 31
-47 31 -1 0 -4 -26 -5 -57z"/>
<path d="M1571 2369 c-13 -11 -31 -24 -39 -28 -15 -8 -17 -61 -7 -201 1 -25 6
-108 9 -185 4 -77 9 -165 11 -195 3 -30 7 -111 10 -179 3 -68 8 -149 10 -180
2 -31 6 -117 10 -191 3 -74 8 -164 10 -200 2 -36 7 -123 10 -195 4 -71 8 -156
10 -188 2 -33 7 -118 10 -190 4 -72 9 -135 11 -139 3 -4 15 -6 27 -3 37 9 71
13 100 14 27 1 27 2 23 49 -3 26 -8 83 -11 127 -3 44 -7 103 -10 130 -2 28 -7
82 -10 120 -3 39 -8 99 -11 135 -3 36 -7 90 -9 120 -4 61 -13 181 -20 250 -2
25 -7 78 -10 118 -3 39 -7 105 -10 145 -3 39 -8 92 -10 117 -2 25 -7 83 -10
130 -3 47 -8 101 -10 120 -2 19 -7 76 -11 125 -3 50 -7 106 -9 125 -6 68 -18
225 -18 248 -1 27 -14 28 -46 1z"/>
<path d="M971 2276 c-6 -7 -13 -38 -16 -67 -2 -30 -7 -85 -10 -124 -3 -38 -8
-86 -10 -105 -2 -19 -7 -73 -10 -120 -3 -47 -8 -101 -10 -120 -2 -19 -7 -69
-10 -110 -3 -41 -8 -91 -10 -110 -2 -19 -7 -71 -10 -115 -4 -44 -8 -98 -10
-120 -2 -22 -6 -74 -10 -115 -3 -41 -8 -93 -10 -115 -5 -41 -11 -113 -20 -240
-3 -38 -7 -88 -10 -110 -2 -22 -7 -71 -10 -110 -3 -38 -8 -88 -10 -110 -13
-128 -16 -215 -8 -215 5 0 17 6 26 13 17 13 22 41 32 172 3 44 8 103 10 130 3
28 8 86 11 130 3 44 7 100 9 125 2 25 6 79 10 120 3 41 7 95 10 120 9 98 17
193 30 380 3 41 7 91 10 110 2 19 7 76 10 125 4 50 8 108 10 130 2 22 7 74 10
115 3 41 8 95 10 120 3 25 7 83 11 130 3 47 8 88 11 93 8 13 -24 7 -36 -7z"/>
<path d="M1179 2163 c-3 -21 -7 -143 -13 -393 -4 -151 -9 -336 -11 -410 -5
-159 -12 -403 -21 -735 -3 -132 -7 -259 -8 -282 -2 -46 15 -59 32 -25 5 9 13
188 17 397 4 209 8 439 10 510 2 72 6 306 10 520 4 215 7 392 7 395 1 19 -3
30 -12 30 -5 0 -10 -3 -11 -7z"/>
<path d="M1336 2048 c1 -68 5 -440 9 -828 6 -649 10 -909 14 -919 0 -2 9 3 19
12 20 19 20 -27 7 1032 -4 308 -6 620 -6 693 0 129 -1 132 -22 132 -22 0 -22
-3 -21 -122z"/>
<path d="M1837 1913 c-7 -15 -2 -298 6 -300 4 -2 21 -3 37 -3 l30 0 0 69 0 69
52 0 c54 1 69 12 61 43 -4 16 -15 19 -59 19 -51 0 -54 1 -54 25 0 24 3 25 54
25 52 0 54 1 58 30 l5 30 -93 0 c-51 0 -95 -3 -97 -7z"/>
<path d="M1836 1398 c1 -84 2 -156 3 -160 0 -5 46 -8 102 -8 l100 0 -3 33 -3
32 -60 0 -60 0 -3 38 -3 37 65 0 66 0 0 30 c0 32 2 32 -82 32 -46 1 -48 2 -48
29 0 26 2 28 48 27 81 -1 82 -1 82 32 l0 30 -103 0 -103 0 2 -152z"/>
<path d="M1858 1164 c-32 -17 -45 -56 -30 -89 6 -14 38 -45 71 -71 71 -55 79
-71 46 -86 -22 -10 -30 -8 -55 11 -28 20 -32 21 -61 6 -30 -16 -30 -17 -12
-37 80 -90 243 -38 218 69 -3 12 -33 43 -68 69 -67 52 -78 64 -71 76 9 13 51
9 64 -7 11 -13 16 -13 41 2 16 10 29 20 29 24 0 4 -15 17 -34 28 -39 25 -99
27 -138 5z"/>
<path d="M572 219 c3 -36 3 -36 153 -63 17 -4 129 -27 250 -54 240 -52 208
-50 410 -18 50 8 167 25 220 32 22 3 78 12 125 19 47 8 103 16 125 19 158 22
155 21 155 57 0 19 -5 29 -15 29 -13 0 -290 -44 -405 -64 -14 -3 -60 -10 -103
-16 -43 -6 -91 -14 -105 -16 -132 -24 -186 -32 -195 -29 -7 3 -23 6 -37 9 -14
2 -85 18 -159 35 -73 17 -143 33 -155 35 -11 2 -39 9 -61 14 -22 6 -51 13 -65
16 -14 3 -36 8 -50 11 -14 3 -40 9 -58 12 -33 6 -33 5 -30 -28z"/>
</g>
</svg>
