<?xml version="1.0" encoding="utf-8"?>
<!-- Generator: Adobe Illustrator 19.0.0, SVG Export Plug-In . SVG Version: 6.00 Build 0)  -->
<svg version="1.1" id="Capa_1" xmlns="http://www.w3.org/2000/svg" xmlns:xlink="http://www.w3.org/1999/xlink" x="0px" y="0px"
	 viewBox="-247 122.7 527.3 524.3" style="enable-background:new -247 122.7 527.3 524.3;" xml:space="preserve">
<style type="text/css">
	.st0{fill:#A4A4A4;}
</style>
<g>
	<g>
		<g>
			<g>
				<path class="st0" d="M48.4,499.6h8.2L73,542.2h-8.4l-3.3-8.8H43.9l-3.5,8.8H32L48.4,499.6z M52.6,510.9l-5.7,14.6h11.4
					L52.6,510.9z"/>
				<path class="st0" d="M76.5,510.7h6.8v4c0.7-1.6,1.7-2.8,2.9-3.6c1.2-0.8,2.5-1.2,4-1.2c1,0,2.1,0.3,3.2,0.8l-2.5,6.8
					c-0.9-0.5-1.7-0.7-2.3-0.7c-1.2,0-2.2,0.8-3.1,2.3c-0.8,1.5-1.3,4.5-1.3,8.9l0,1.5v12.7h-7.8L76.5,510.7L76.5,510.7z"/>
				<path class="st0" d="M120.6,510.7h7.9v31.5h-7.9v-3.3c-1.5,1.5-3.1,2.5-4.6,3.2c-1.6,0.6-3.2,1-5,1c-4.1,0-7.6-1.6-10.6-4.7
					c-3-3.2-4.5-7.1-4.5-11.8c0-4.9,1.4-8.8,4.3-12c2.9-3.1,6.4-4.7,10.5-4.7c1.9,0,3.7,0.4,5.3,1.1c1.7,0.7,3.2,1.8,4.6,3.2
					L120.6,510.7L120.6,510.7z M112.3,517.1c-2.4,0-4.5,0.9-6.1,2.6c-1.6,1.7-2.4,3.9-2.4,6.6c0,2.7,0.8,5,2.5,6.7
					c1.6,1.8,3.7,2.6,6.1,2.6c2.5,0,4.5-0.9,6.2-2.6c1.6-1.7,2.5-4,2.5-6.8c0-2.7-0.8-5-2.5-6.7C116.9,518,114.8,517.1,112.3,517.1z
					"/>
				<path class="st0" d="M159.7,510.7h7.9v27c0,5.3-1.1,9.2-3.2,11.8c-2.9,3.4-7.2,5.1-13,5.1c-3.1,0-5.7-0.4-7.8-1.2
					c-2.1-0.8-3.9-1.9-5.3-3.4c-1.4-1.5-2.5-3.3-3.2-5.5h8.7c0.8,0.9,1.8,1.6,3,2c1.2,0.5,2.7,0.7,4.3,0.7c2.1,0,3.8-0.3,5.1-1
					c1.3-0.7,2.2-1.5,2.7-2.5c0.5-1,0.8-2.8,0.8-5.4c-1.4,1.4-2.8,2.4-4.4,3c-1.5,0.6-3.3,0.9-5.2,0.9c-4.2,0-7.8-1.5-10.7-4.6
					c-2.9-3-4.4-6.9-4.4-11.6c0-5,1.5-9,4.6-12c2.8-2.7,6.1-4.1,10-4.1c1.8,0,3.5,0.3,5.1,1c1.6,0.7,3.2,1.8,4.8,3.3L159.7,510.7
					L159.7,510.7z M151.6,517.2c-2.5,0-4.5,0.8-6.2,2.5c-1.6,1.7-2.4,3.8-2.4,6.3c0,2.6,0.8,4.8,2.5,6.5c1.7,1.7,3.7,2.5,6.3,2.5
					c2.5,0,4.5-0.8,6.1-2.5c1.6-1.6,2.4-3.8,2.4-6.5c0-2.6-0.8-4.8-2.4-6.4C156.1,518.1,154.1,517.2,151.6,517.2z"/>
				<path class="st0" d="M190.4,509.9c3,0,5.8,0.7,8.4,2.2c2.6,1.5,4.7,3.5,6.1,6c1.5,2.5,2.2,5.3,2.2,8.2c0,3-0.7,5.8-2.2,8.3
					c-1.5,2.6-3.5,4.6-6,6.1c-2.5,1.5-5.4,2.2-8.4,2.2c-4.5,0-8.4-1.6-11.6-4.8c-3.2-3.2-4.8-7.1-4.8-11.7c0-4.9,1.8-9,5.4-12.3
					C182.6,511.3,186.3,509.9,190.4,509.9z M190.5,517.3c-2.5,0-4.5,0.9-6.1,2.6c-1.6,1.7-2.4,3.9-2.4,6.6c0,2.7,0.8,5,2.4,6.7
					c1.6,1.7,3.7,2.5,6.1,2.5s4.5-0.9,6.2-2.6c1.6-1.7,2.5-3.9,2.5-6.6c0-2.7-0.8-4.9-2.4-6.6C195.1,518.1,193,517.3,190.5,517.3z
					 M191.9,493.6h9.3l-10.6,11.3H185L191.9,493.6z"/>
				<path class="st0" d="M213.6,510.7h7.9v3.2c1.8-1.5,3.4-2.6,4.9-3.2c1.5-0.6,2.9-0.9,4.5-0.9c3.1,0,5.8,1.1,7.9,3.3
					c1.8,1.9,2.7,4.6,2.7,8.2v20.8h-7.8v-13.8c0-3.8-0.2-6.3-0.5-7.5s-0.9-2.2-1.8-2.8c-0.8-0.6-1.9-1-3.1-1c-1.6,0-3,0.5-4.1,1.6
					c-1.1,1.1-1.9,2.5-2.4,4.4c-0.2,1-0.3,3.1-0.3,6.4v12.6h-7.9L213.6,510.7L213.6,510.7z"/>
			</g>
		</g>
		<g>
			<path class="st0" d="M117.9,271.4c4.5-1.9,3.9,12.9,2.2,13.7c-0.5,0.2-1.6,0.3-2.2-0.2c-1-0.9-1.4-8.3-1.3-11
				C116.6,273.1,117,271.7,117.9,271.4z M118.3,272.2c-0.1,0.3-0.2,0.5-0.4,0.7c0.8,4-0.8,8.8,1.5,11.3c1.1-1.3,0.3-4.3,0.2-6.6
				c-0.1-2,0.6-4.4-0.9-5.3C118.6,272.2,118.5,272.2,118.3,272.2z"/>
			<path class="st0" d="M122.1,271.1c2.9,0.3,2,4.3,3.3,6.2c0.6-2.3-0.1-4,0-6.2c1.8-0.3,1.2,1.9,1.3,2.9c0.3,3.1,0.4,7.8,0,10.6
				c-2.2-1.2-1.6-5.1-2.9-7.3c-1.3,1.6,0.8,5.7-0.7,7.5c-1,0-0.8-1.2-0.9-1.8C121.9,279.8,122.2,274.7,122.1,271.1z"/>
			<path class="st0" d="M128.9,271.1c0.4,0,0.9,0,1.3,0c0.9,3.9,2.4,9.5,1.8,13.5c-1.9,0.3,0-3.2-1.5-3.3c-0.5-0.1-0.8,0-1.1,0.2
				c-0.7,0.8,0.2,3.2-1.3,3.3C127.6,280.9,128.7,275.1,128.9,271.1z M130.2,280.2c0-0.2,0.2-0.3,0.4-0.2c-0.2-1.3,0-3.1-0.9-3.8
				C129.8,277.4,128.7,280.1,130.2,280.2z"/>
			<path class="st0" d="M132.9,271.1c0.4,0,0.7,0,1.1,0c0.4,3.8,0.4,7.8,0.4,11.9c0,1,1.7,0.4,2.2,0.9c-0.1,1.2-2.8,0.6-3.5,0.4
				C133.1,278.8,133,275.3,132.9,271.1z"/>
			<path class="st0" d="M144.8,271.4c1.3,3.5,1.9,8.9,1.5,13.2c-1.5-0.1-0.2-3-1.5-3.3c-2.1-0.3-1,2.7-2.2,3.3c-1-1.4-0.1-3.9,0.2-6
				c0.4-2.2,0.9-4.5,0.9-6.6c0.3-0.2,0.4-0.6,0.7-0.9C144.6,271.1,144.8,271.2,144.8,271.4z M144.6,280.2c0.9-0.6,0.8-3.1-0.2-4
				C144.2,277.4,143,280.1,144.6,280.2z"/>
			<path class="st0" d="M148.3,271.4c1.4,1.6,0.5,4.3,0.4,6.4c-0.1,2-0.6,5,0.9,6.4c2.1-2.9,0.2-8.9,1.5-12.8
				c1.1,0.2,0.9,2.2,0.9,3.8c-0.1,3.5,0.1,8.1-1.3,9.9c-1.1,0.2-1.4,0.1-2.4-0.2c-1.6-3.2-0.3-9.9-0.4-13.5
				C148,271.4,148.2,271.4,148.3,271.4z"/>
			<path class="st0" d="M161.1,271.6c1.7,3.7,0.8,10.1-0.4,13.7c-0.8,0.2-1.9,0.4-2.6,0C157.1,282,156.1,269.8,161.1,271.6z
				 M159.6,272.7c0,0.3-0.3,0.3-0.2,0.7c-0.6,1.1-0.3,3.9-0.4,6.2c-0.1,1.9-1,3.9,0.4,4.6c1.5-0.6,0.8-2.6,0.9-4
				c0.1-2.5,0.8-5.5,0.4-7.5C160.3,272.7,160,272.7,159.6,272.7z"/>
			<path class="st0" d="M114.3,271.6c1.8,1,1.1,4.2,1.3,6.6c0.2,2.3,1.1,5.2,0,6.8c-1.3-0.3-0.7-2.3-0.9-3.5
				C114.5,278.8,113.7,274,114.3,271.6z"/>
			<path class="st0" d="M153.2,271.6c1.3,0.1,3-0.2,4,0.2c0.1,1-1.3,0.5-1.5,1.1c-0.2,4.2,0.1,8.3-0.9,12.1c-1.7-0.1-0.7-2-0.7-2.9
				c0.1-3,0.1-6.6,0.2-9.3C154.2,272.2,152.9,272.6,153.2,271.6z"/>
			<path class="st0" d="M164.2,271.6c1.6,1.2,1.2,4.4,2,6.4c1-1.3,0-4.7,1.1-6c1.3,0.8,0.7,3.4,0.7,5.3c-0.1,3-0.3,6.8-1.3,8.6
				c-1.8-1.6-1-5.1-1.8-7.9c-1.7,1.8,0,5.7-1.5,7.7c-1.4-1-0.6-4.4-0.4-7.1c0.1-2,0.6-3.7,0.4-6.2
				C163.6,272.1,163.9,271.8,164.2,271.6z"/>
			<path class="st0" d="M112.8,276.4c-1.7,0-0.4-3-1.5-3.5c-1.8,1.5-0.4,5.6-0.2,8.4c0.1,1.4-0.2,2.7,0.9,3.3
				c1.5-0.6-0.2-3.5,0.9-4.2c2.2,0.7,1.2,6.5-2,5.3c-1.3-3.5-2.8-11.1-0.7-13.9c1.2-0.3,1.3,0.5,2.2,0.4
				C112.8,273.2,114,275.3,112.8,276.4z"/>
			<path class="st0" d="M106,272.2c1.5,4,2.8,9.5,3.3,13.7c-2.1,0.4-1-2.3-1.8-3.3c-2.8-0.9-1.1,2.7-2.2,3.5c-1.2-1-0.7-3.1-0.7-4.9
				c0-3.1,0.1-5.7,0.2-8.4c-0.1-0.5,0.4-0.3,0.4-0.7C105.5,272.2,105.7,272.2,106,272.2z M106.4,281.3c1.4-0.6,0.1-3.4-0.4-4.2
				C106.1,277.8,105.5,280.7,106.4,281.3z"/>
			<path class="st0" d="M173,272.9c0.2,2.9,0.9,11.6-1.3,13.2c-4.5,3.2-3.2-6.8-2.9-9.7c0.1-1,0.6-2.6,0.9-3.5
				C170.7,272.3,172.1,271.9,173,272.9z M171.1,273.6c0,0.3-0.3,0.3-0.2,0.7c-0.6,1.4-0.4,3.5-0.7,5.7c-0.2,1.8-1.2,4.5,0.4,5.1
				c1.3-3.3,1.2-7.8,1.5-11.5C171.8,273.6,171.4,273.6,171.1,273.6z"/>
			<path class="st0" d="M101.3,272.9c0.2,0,0.4,0,0.7,0c1,4,1.9,9.5,1.3,13.2c-1.2,0.3-0.7-0.9-0.9-1.3c-0.8-1.9-1.8-4.1-2.4-6.2
				c-1.3,2,1.2,6,0,7.9c-1.5-0.5-0.9-2.6-1.1-4c-0.4-3-1.2-6.6-0.9-9.3c2.6,0.5,2,4.1,3.5,5.7C102.2,277.3,100.9,274.5,101.3,272.9z
				"/>
			<path class="st0" d="M176.6,272.9c1.2,1.4,0.4,5.5,0.9,6.8c1.2-1.5,1-4.5,2-6.2c0.8-0.1,1.4,0,2,0.2c0.1,3.1-0.5,5.5-0.9,8.4
				c-0.2,1.6,0.5,4.2-1.6,4.9c-0.2-2.8,0.6-5,0.7-8.2c-1.7,2.1-0.9,6.6-3.3,7.9c-0.4-2.3,0.1-5.5-0.4-8.6c-0.7,1.1-0.5,2.8-0.7,4.4
				c-0.2,1.4,0.1,3.5-1.3,4c-0.6-3.9,0.6-9.2,1.1-13.5C175.3,272.8,176,272.9,176.6,272.9z"/>
			<path class="st0" d="M185.6,273.8c0.7,2.5,0.6,6.5,0.4,9.9c0,1.5,0.2,3.4-0.9,4c-1.1-0.3,0.1-2.9-0.7-3.5
				c-2.6-0.7-1.2,2.6-2.9,2.9c-0.5-3.3,1.9-8.7,2.9-12.6c0.1-0.3,0.4-0.4,0.4-0.7C185.2,273.8,185.4,273.8,185.6,273.8z
				 M184.7,282.8c0-1.7,0.5-2.6,0-4C184.5,279.8,182.4,282.8,184.7,282.8z"/>
			<path class="st0" d="M92.3,287.5c-0.8,0.3-1.7,0.5-2.9,0.4c-0.7-4.7-1.4-8.3-2-13c1.5-0.3,2.7-0.8,3.8,0.2
				C92.5,276.4,93.6,285.8,92.3,287.5z M89,275.8c-0.2,0.1-0.3,0.2-0.2,0.4c0.8,2.7,0.6,6.4,1.3,9.3c0.1,0.6,0.2,1.5,1.1,1.5
				c1.4-2.6,0.1-10-1.5-11.5C89.3,275.5,89.2,275.7,89,275.8z"/>
			<path class="st0" d="M84.1,275.1c1.5,1.4,2,4,2.6,6.2c0.7,2.4,1.5,4.7,1.5,6.8c-2,0.4-0.7-2.5-2-2.9c-2.4-0.5-0.6,3.1-1.8,3.8
				c-1.7-2-0.4-8.9-1.3-13.2c0.2-0.2,0.3-0.4,0.4-0.7C83.8,275.1,84,275.1,84.1,275.1z M85.2,284.2c1.7-0.4,0.4-3.6-0.4-4.2
				C84.7,281.2,84.7,283.3,85.2,284.2z"/>
			<path class="st0" d="M196.9,276.2c0.5,4.4,0.9,14.5-5.3,12.4c0.6-4.4,1.4-9.5,2.2-13C195.1,275.5,196.2,275.6,196.9,276.2z
				 M194.9,282.4c-1.4,1-2,3.6-1.8,5.5c2.4-0.4,2.5-4.5,2.9-7.3c0.2-1.4,0.5-3-0.2-4C193.6,277.1,193.9,281.3,194.9,282.4z"/>
			<path class="st0" d="M82.6,288.6c-0.7,0.8-1.9,1-3.3,1.1c-1.1-3.7-1.4-8.7-2.4-13C82.6,273.4,82.5,284,82.6,288.6z M78.6,277.1
				c0,3.5,0.8,8.2,2,11.3c1.8-0.6,0.7-3.3,0.4-5.1c-0.3-2.1-0.4-4.7-1.3-6.2C79.3,277.1,79,277.1,78.6,277.1z"/>
			<path class="st0" d="M74.8,276.7c0.4-0.1,0.4,0.2,0.7,0.2c0.7,1.9,0.9,4.5,1.3,6.8c0.4,2.2,1.7,4.7,0.4,6.4
				c-1.2-0.6-0.9-2.3-1.1-3.5c-0.5-2.6-1.2-6.1-1.8-9C74.2,276.9,74.8,277.1,74.8,276.7z"/>
			<path class="st0" d="M73.5,280.6c-1.5,0.1-0.5-2.1-1.5-2.4c-1.8,1-0.5,3.2,0,4c1.4,2.2,4.8,3.8,3.3,7.9c-2,2.2-4.6-0.8-4-3.1
				c1.9-0.3,0.8,2.4,2.2,2.6c3.1-3.2-4.4-7-3.8-10.8C70.4,275.4,75.1,278,73.5,280.6z"/>
			<path class="st0" d="M206.6,278c-0.1,2,0.1,3.8,0,6.2c1.5-1.3,1.4-4.2,2.4-6c0.5,0,1,0,1.5,0c0.5,1.6-0.2,3.4-0.4,5.1
				c-0.5,3-0.4,6.7-2.2,8.4c-0.3-2.6,0.9-5.7,1.1-8.6c-1.5,2.2-1.7,5.8-3.3,7.9c-1.1-2.1,0-6.9-0.4-8.4c-1.5,2.3-0.7,6.3-2.2,8.2
				c-1.2-2.2,0.4-5.5,0.9-8.6c0.3-1.6,0.1-3.3,0.7-4.6C205.5,277.4,206.1,277.7,206.6,278z"/>
			<path class="st0" d="M67.6,278.2c0.8,0.9,2.3,3.1,2.2,5.1c0,0.7-0.7,1.1-0.7,1.8c0.1,2.3,2.2,3.9,1.8,6.2
				c-2.5-0.3-1.4-4.3-3.3-5.3c-0.4,1.7,0.9,3.5,0.7,5.7c-2,0.3-1.6-2-1.8-3.1c-0.6-3-1.5-6.9-2-9.9
				C65.2,278.2,66.3,278.2,67.6,278.2z M67.6,284.4c1.2-1,0.7-5.2-1.3-5.1C66.1,280.7,66.3,283.7,67.6,284.4z"/>
			<path class="st0" d="M63.8,279.1c-0.1,0.9-1.1,0.9-2,1.1c-0.2,1.3,0.5,3.2,0.9,4.6c0.7,0,1.6-0.1,2,0.2c0.1,1.1-1.4,0.7-1.8,1.3
				c0.6,1.4,0.3,3.6,1.3,5.1c1,0,1.6-0.8,2.2,0c-0.6,1-2.4,0.9-3.7,1.1c-0.5-4.5-2.1-9-2.4-13C61.2,279.2,62.8,278.6,63.8,279.1z"/>
			<path class="st0" d="M212.5,278.9c1.5,0,2.6,0.3,3.5,0.9c-0.1,1.3-1.1,0.2-2,0.4c-0.8,1-1.3,3.2-0.9,4.6c0.2,0.5,1.2,0.1,1.3,0.7
				c-0.3,1-0.9,0.3-2,0.7c-0.5,1.4-0.9,2.9-1.1,4.6c0.2,1,2,0.4,2.4,1.1c0.9-1.6,2.3-3.4,2.9-5.5c0.6-2.2-0.5-4.9,0.7-6.6
				c1.3,0.2,0.3,2.8,0.9,3.8c1.3-0.6,0.8-3,2.6-3.1c0.2,2.1-1.5,4.2-2.4,6c-0.2,2.7,0.3,5.7-0.4,7.3c-2-0.1-0.4-2.5-0.9-4.2
				c-1.6,0.5-1.2,3-2.6,3.5c-0.9-1-3.1-0.4-4.6-1.1C210.8,287.4,211.8,283.8,212.5,278.9z"/>
			<path class="st0" d="M57.9,280c0.2,0,0.3,0,0.4,0c1.3,0.6,1,2.8,1.3,4.6c0.4,2.8,1.1,6.1,0.7,9c-1.5,0-1.2-1.4-1.5-2.2
				c-1.5-3.4-3.5-7.3-4-10.8c2.2,1.3,2.1,5,3.8,6.8C58.9,285.2,58,282.4,57.9,280z"/>
			<path class="st0" d="M222.7,280.9c0.3,0.1,0.3,0.4,0.7,0.4c-0.4,2.3-1,4.6-1.6,6.8c-0.5,2.1-0.8,4.5-2.2,6
				c-0.8-1.2,0.1-4.1,0.7-6.4c0.5-2.2,1.5-4.4,1.8-6.4C222.2,281.1,222.6,281.2,222.7,280.9z"/>
			<path class="st0" d="M52.8,281.3c2.3,3.3,3.6,8.8,4.2,13c-1.2,0.1-1.5-1.6-1.8-2.4c-0.9-3-1.6-6.8-2.9-9.7
				C52.2,281.6,52.8,281.7,52.8,281.3z"/>
			<path class="st0" d="M227.1,286.8c-1.8-0.5,0.5-2.7-0.4-3.7c-1.6,0.8-1.9,3.3-2.4,5.1c-0.6,1.8-1.4,4-0.9,6
				c1.8,0,0.9-3.8,2.4-3.3c1.5,2.4-2.5,6.6-4.2,3.3c0-1.7,0.8-3.6,1.3-5.7c0.8-3.1,0.9-7,4.4-6.4C228.4,283,228.6,286,227.1,286.8z"
				/>
			<path class="st0" d="M50.1,282c0.2,0,0.4,0,0.7,0c1.4,4,3.5,8.5,3.7,13c-2.2-0.8-2.8-5-4.9-6.6c-0.4,2.3,2.5,5.5,1.5,7.7
				c-1.5-1.5-1.9-4.3-2.6-6.6c-0.7-2.2-2.1-4.6-1.5-6.6c2.4,0.9,2.7,3.9,4.4,5.5C52,286.3,49.7,284,50.1,282z"/>
			<path class="st0" d="M226.4,295.9c0.4-2.8,1.9-14,6.2-12.4c1.9,2.2-1.6,12.3-3.1,13C228.5,297,227.3,296.6,226.4,295.9z
				 M231.1,284.6c-0.9,3.4-3.4,7.4-2.9,10.8c2.2-1.2,2.5-5.4,3.1-7.5c0.6-0.6,1.2-2.2,0.7-3.3C231.7,284.6,231.4,284.6,231.1,284.6z
				"/>
			<path class="st0" d="M44,283.9c0.1,0,0.3,0,0.4,0c1.7,1.4,1.9,4.1,2.7,6.2c0.7,2,2.4,4.2,1.5,6.6c-0.5,0.6-1.4,0.8-2.6,0.7
				c-1.4-1.5-2-3.9-2.9-6.2c-0.8-2.2-2.1-4.5-1.8-6.4c1.5,0.1,1.4,1.9,1.8,3.1c0.9,2.5,2.2,6.2,3.8,8.4c1.8-1.3-0.2-3.7-0.9-5.5
				c-0.8-2.1-1.2-4.4-2-6.2C44,284.4,44,284.2,44,283.9z"/>
			<path class="st0" d="M166.4,293c1.4-0.4,1.2-2.3,3.1-2.2c2.2,2.3,2,3.8,4.4,5.7c4.5,3.6,13.7,1.6,14.6,7.3
				c0.4,2.6-1.1,4.2-2.9,5.1c0.2-2.6-2-4.3-4.2-3.1c-0.2,1.2,1.8,0.2,2,1.1c-0.8,5.9-9,1.2-12.4,3.3c-2.5,7.9,2,19.3,9.9,14.6
				c1.5,5.9-8.4,7.1-11,3.3c-1.3,0.8-1.1,2.3-2.4,2.6c-3.2,0.7-4.1-4.1-6.2-5.3c-3.2,2.8-11.2,7.9-16.6,4c-1.3-0.9-2.2-2.8-2.6-4.9
				c6.2,1.4,11.6-1.2,14.3-4.6c-3.3,2.3-14.5,4.3-13.7-3.8c5.7,1.5,10.2-1.2,13-4c-4.5,0.8-9.5-1-10.6-5.1c3.5,0.7,8.4,0.6,10.6-1.1
				c-3.4,0.3-7.5-0.7-7.9-4.6c2.9-0.6,8,0.1,10.6-1.3c-2.1-2.3-2.9-7-0.2-9c1.5,0.1,1.6,1.6,2.6,2.2c0.6-1.3,0-2.6,1.3-3.3
				C163.8,290.8,165,292,166.4,293z M163.8,298.7c-2.8-0.5-3.3-3.4-5.1-5.1c-2.1,3.4,2.4,5,3.5,7.3c-3.2,1.9-8.3,1.3-12.1,1.8
				c0.9,2.2,6.4,1.5,9.3,0.9c1.3,5.8-5.9,5.2-10.2,5.5c2.9,3,9.8,0.3,11.9-2.2c-1.1-3.1,1.7-5.7,4.2-6.6c0.2-1.6-0.7-3.2,0.2-4.9
				c-0.9-0.7-1.2-2-2.6-2.2C162.5,295.6,163.8,297.4,163.8,298.7z M171.3,296.1c-0.6-1.1-0.9-2.5-2.4-2.6
				C168.9,295,169.7,295.9,171.3,296.1z M171.1,298.7c-0.6-0.5-1.2,0.2-2.2,0c-0.7-0.2-0.4-1.6-1.1-1.8
				C166.3,298.9,170,301,171.1,298.7z M166.9,301.4c-2.2,0.3-3.8,2.4-4,4.2c2.2,0,2.2-2.3,4.4-2.4c0.1,0.8-0.6,1.4,0,2
				c1.1-0.3,1.3-1.5,2-2.2c1.8-0.7,4.2-0.9,4.2-3.5c-0.1-0.2-0.2-0.3-0.4-0.2C172.7,302.7,169.3,301,166.9,301.4z M171.7,305.1
				c2.2-1.1,3.6-3,4.8-5.1C174.6,301.4,173.2,303.3,171.7,305.1z M178.8,300.3c-0.1,0-0.3,0-0.4,0c-1.1,3.4-4.4,4.6-6.6,6.8
				c2.2,0,6.1,2.3,8.8,1.1c-1.3-1.3-4.9-0.2-5.7-2c2.6-2.1,8.8-3.5,11.9-1.1C187.6,301,181.9,301,178.8,300.3z M163.1,310.9
				c1.2-0.2,1.4-1.4,2.4-1.8c0.9,1.1,0.8,3.2,2.4,3.5c0.7-1.6,1.1-3.4,1.1-5.7c-0.9,0.1-1.6,0.5-2.4,0.7
				C164.7,305.4,161.2,308.3,163.1,310.9z M160.2,310.2c-3.2,4.6-7.6,7.9-15,8.2c0.4,2.2,3.9,2.2,6,1.8c1.2-0.3,3.3-1.9,5.1-3.3
				c2.5-2,5.2-3.6,4.6-6.6C160.7,310.2,160.5,310.2,160.2,310.2z M160.2,318.1c2.5-1,4.4-2.6,4.6-5.7
				C162.6,313.5,160,315.3,160.2,318.1z M167.5,319.7c0.4-1.8,1.4-4.2,0.2-5.7c-0.4,0-0.7,0-1.1,0
				C166.4,315.7,166,319.1,167.5,319.7z M162,319.5c1,1.4-0.7,4.3,1.8,4.4c0.5-1.8,1.1-3.5,1.1-5.7
				C163.7,317.6,163.2,319.3,162,319.5z M159.8,320.6c-1,0.4-1.4,1.2-2.2,1.8c-2.7,1.9-5.7,3.8-9.5,4.4c-1,0.2-1.9-0.5-2.9,0.7
				c5,3.5,11.7-1,14.6-4c-0.1-1.2,0.7-1.5,0.4-2.9C160.1,320.6,160,320.6,159.8,320.6z M164.2,325.6c0.5,1.5,1.3,2.7,3.1,2.9
				c-0.1-1.6,0.6-3.1,0-4.4C166.4,323.8,165.4,325.4,164.2,325.6z M177.5,327.9c-2.3-0.2-3.9-0.9-5.7-1.5
				C172.4,327.8,175.9,329.4,177.5,327.9z"/>
			<path class="st0" d="M98.7,297c1.2,1.9,1.9,5.1,3.3,7.5c0.5,0.9,1.4,1.3,1.5,2.2c0.4,2.4-1.2,4.8-2.9,5.1c-1,0.2-2.2-0.5-3.3-0.7
				c-2.3-0.4-5.6-0.2-6.8-1.8c1.6-1.6,5.1-1.4,6.2-3.5c-0.9-0.9-2.8,0.4-4-0.2C91.6,301.3,94.9,297.8,98.7,297z M94.7,303.6
				c2.9-0.9,5.5,0.9,4.6,3.5c-0.4,1.3-1.9,0.9-2.9,2c0.6,0.8,2.2,0.7,3.5,0.9c3.6-3.9-2.4-6.5-2.4-10.8
				C95.8,299.7,94,301.3,94.7,303.6z"/>
			<path class="st0" d="M106.4,298.9c2.8-1.5,3.4,3.3,1.1,3.5C105.6,302.7,104.7,299.8,106.4,298.9z"/>
			<path class="st0" d="M92.1,299.8c-0.5,1.6-0.5,3.8-0.9,5.5c-0.7,1-2.2,1.2-2.4,2.6c0.1,0.8,0.6,1.3,0.9,2
				c-2.1,0.1-3.3-0.8-4.4-1.8C84,302.9,88.6,300.4,92.1,299.8z M86.8,306.9c1.8-0.7,3-2,3.1-4.4C87.8,302.9,86.5,304.9,86.8,306.9z"
				/>
			<path class="st0" d="M118.8,311.1c-1.6-1.7-0.7-4.9,1.6-5.3C122.1,307.4,122.6,311.5,118.8,311.1z M119.9,309.5
				c0.3-0.6,0.8-1.6-0.4-1.5C119.5,308.6,119.2,309.5,119.9,309.5z"/>
			<path class="st0" d="M120.1,316.4c-1.1-2-1.1-4.8,1.1-5.5C123.6,311.8,123,316.5,120.1,316.4z M121.4,314c-0.6-0.1,0.3-0.4,0-0.9
				c-0.2,0-0.4,0-0.7,0C120.5,313.7,121.1,314.6,121.4,314z"/>
			<path class="st0" d="M115,315.3c-0.6,0.3-1,0.9-2,0.9C110.2,313.2,115.4,308.6,115,315.3z"/>
			<path class="st0" d="M115,316.2c0.3,0.9,0.3,2.6,0,3.5c-0.7,0.3-1.1,0.8-2.2,0.7C111.6,318.6,113,316.1,115,316.2z"/>
			<path class="st0" d="M116.1,323c-0.6-1-0.4-2.1,0-3.3C120.5,315.6,121,324.3,116.1,323z M117,321.2c0.6,0.8,1.6,0.2,1.8-0.7
				C118.1,320,117.2,320.7,117,321.2z"/>
			<path class="st0" d="M106.4,324.1c-1.6,2.5-3.9,4.2-5.5,6.6c-2.3,0-3.8-0.6-6-1.1c2.5-2.9,6.1-4.8,9.3-7.1
				C105.1,322.9,106,323.3,106.4,324.1z M98.5,329c0.8-0.2,0.9,0.3,1.5,0.2c1.3-1.6,3.3-2.6,4.2-4.6
				C101.9,325.7,99.7,326.8,98.5,329z"/>
			<path class="st0" d="M110.8,324.8c-0.8,2.7-2.3,4.6-3.8,6.6c-1.4-0.3-3.3-0.3-4.6-0.7c1.3-2.6,3.4-4.4,5.1-6.6
				C108.9,324.4,109.4,324.8,110.8,324.8z M105.5,329.4c1.7,0.9,3.1-2.6,2.4-3.3C107.3,327.4,106,328,105.5,329.4z"/>
			<path class="st0" d="M43.3,333.4c-0.1-1.9,0.9-2.8,0.9-4.6c-1.5-0.4-1.1,3-2.6,3.3c-1.2-0.9,1.1-3.3,0.2-4.6
				c-1.7,0.6-1.1,3.5-2.4,4.4c-2-0.4-1.7-2-0.9-4.2c0.2-0.6,0.8-2.4,1.1-2.6c1.8-1.8,3.9,0.1,5.7,0.9
				C46.9,327.9,46.7,334.1,43.3,333.4z"/>
			<path class="st0" d="M238.8,325.4c0.9,5.3,2.3,18.2-6.6,13.9c-1.5-3.3-1.9-9.5-0.9-12.8c0.7,0,0.9-0.4,1.8-0.2
				c1.4,1.8-0.6,10,1.8,10.4c1.8,0.3,1.9-4.5,1.8-6.8c-0.1-1.1-0.9-3-0.2-4.2C237.2,325.3,237.8,325.1,238.8,325.4z"/>
			<path class="st0" d="M229.1,326.3c1.6,3.5,1.8,14.7-2.7,15.2c-5,0.6-3.9-5.9-4.4-10.4c0.5-0.6,1.1-1.1,2.2-1.1
				c1.3,1.5,0,5.6,1.5,6.8C228.7,334.4,224.8,327.8,229.1,326.3z"/>
			<path class="st0" d="M163.1,330.3c-2,0.2-4.8,0.6-6.6,0.2c0.9-1.8,2.7-2.7,4.2-4C162,327.3,162.4,329,163.1,330.3z"/>
			<path class="st0" d="M234.6,326.5c1.3,1.5,1.1,6.6,0.4,8.6C233.8,332.8,234.3,329,234.6,326.5z"/>
			<path class="st0" d="M53.4,336.5c-0.7,0.1-1-0.1-1.5-0.2c-0.5-0.9,0.7-2.5,0.2-3.3c-1.2,0.4-0.4,2.9-2.2,2.6
				c-0.6-0.9,0.7-2.4,0.2-3.1c-1.2,0.4-0.5,2.8-2,2.9c-3.4-2.3,1.4-9.5,5.5-5.7C54.4,331.5,53.9,334.5,53.4,336.5z"/>
			<path class="st0" d="M225.3,329.6c0.2,0,0.4,0,0.7,0c0,1.7,0.9,4.6,0,5.7C225.2,333.4,225.5,331.2,225.3,329.6z"/>
			<path class="st0" d="M60.7,337.6c-0.4,0-0.9,0-1.3,0c-0.6-0.9,0.2-2.4-0.2-3.1c-0.9,0.6-0.5,2.4-1.1,3.3c-1.7-0.1-0.1-2-0.9-2.9
				c-0.7,0.4-0.2,2-0.7,2.6c-0.6-0.2-0.6,0.3-1.1,0.2c-1.1-1.6,0.1-4,0-6C58.7,328.4,63,333.3,60.7,337.6z"/>
			<path class="st0" d="M198.9,349.5c1.1-0.6-0.5-2.8,1.5-2.6c1.2,0.8,0.7,3.3,1.1,4.9c1.5-1.5-1.5-6.3,2.2-5.7
				c0.7,2.4,1,10.1-2,10.1c-1.6,0-2-1.8-2.4-3.5c-0.5,2.7,0.2,6.6-0.9,8.8c1.2-0.3,1.5,1.2,2,2.2c0.5-0.9,0.1-2.7,0.9-3.3
				c1.5,1.6,1,4.9,0.7,7.3c-0.6,4.3-1.5,9.1-4.6,10.6c0-4.7,1.6-9.5,1.1-15.4c-1.3,3.5-1.8,7.1-3.3,10.6c-2.3,5.5-4.7,11.9-3.5,19
				c1.1,0.1,1.2-1.1,2.4-1.3c5.8-1,5.2,8.8-0.4,9c-6.6,0.3-8.9-6.4-7.7-13.5c1.8-11,9.2-23.2,9.7-34c0.3-7.4-3.1-15-8.2-17.4
				c-0.1-1-0.5-3-0.2-3.8C194.5,333.1,198.5,340.1,198.9,349.5z"/>
			<path class="st0" d="M217.4,342.2c-1-0.9-1.4-2.5-1.8-4c-0.3,1.7,0,5.6-3.7,4.6c-1.5-0.9-1.6-4.2-1.1-6.4
				c0.8-0.1,1.1,0.3,1.5,0.4c0.1,0.8-0.4,2.3,0.4,2.4c0.8-0.5,0.1-1.8,0-2.6c0.6-0.6,0.9-1.6,2.4-1.3c0.5,0.3-0.1,1.7,0.4,2
				c0.2-1.5,0-4,2.2-3.1c0,0.7,0,1.5,0,2.2c0.6-0.2,0-1.6,0.9-1.5c0.4,0.5,0.1,1.8,0.2,2.6c-0.5,0.1-0.6-0.2-0.9-0.2
				c0,0.5,0,1.1,0.4,1.1c1.5-0.5,0.7-3.8,0.7-5.3c0.5-0.4,1.2-0.9,2-0.4C222.1,336.1,222.9,343.3,217.4,342.2z"/>
			<path class="st0" d="M66.9,339.8c-1.5-0.2-0.5-1.7-0.4-2.7c-1.6-0.1-0.2,2.7-2.2,2.2c-0.2-1,0.2-1.5,0.2-2.4
				c-1,0.1-0.6,1.6-1.1,2.2c-3,0-1.1-4.6-0.2-5.5C67.8,332.1,69,336.7,66.9,339.8z"/>
			<path class="st0" d="M87,333.8c0.2,0,0.2,0.1,0.2,0.2c2,3.6-2.5,5.5-4,7.7c-3.4,9.2-1.2,22.3,1.3,30.9c1.8,6.2,4.6,10.7,3.7,18.3
				c-0.2,2.2-1.4,4.8-2.6,6c-2.7,2.5-10.1,2.6-10.8-2c-0.7-4.4,3.2-6.4,6.8-4.4c2.9-7.6-2.4-15.7-2.9-24.5c0-0.7,0.3-1.5,0.2-2.2
				c-0.1-3.1-1-6.1-0.9-9C78.5,346,80.2,336.2,87,333.8z"/>
			<path class="st0" d="M39.1,334.9c-0.4,4.8-1.2,9.8-1.3,15c0,2.6-0.5,5.4,0.9,7.7c3.1-1.4,2.5-6.1,2.9-9.9c0.3-4,0.3-8.1,1.1-11
				c0.8,0.1,1.2,0.5,2,0.7c0.7,1.3-0.1,2.7-0.2,4.2c-0.5,6.6-0.1,14.3-2,18.8c-6.7,2.2-8-1.7-7.7-8.6c0.3-5.8,1-13.6,1.5-17.2
				C36.9,333.6,38.5,334.4,39.1,334.9z"/>
			<path class="st0" d="M111.5,335.6c0.7,3.7-2.3,3.7-5.1,4c-0.4,1.7,1,1.5,1.1,2.6c-1,0.7-4.3,0.7-5.3,0c0.6-1.6,0.4-4,0.4-6.2
				c-0.1-0.7-1.5-0.2-1.5-0.9C103.9,333.8,109,333.9,111.5,335.6z M108.4,337.3c0-0.4,0-0.7,0-1.1
				C105.7,334.5,105.8,338.5,108.4,337.3z"/>
			<path class="st0" d="M173.3,334.7c-1.3,1.5-1.7,5.9-0.2,7.5c-1.7,0.5-2.9,0.2-4.9,0.2c0.9-2.2,1.5-5.7,0-7.7
				C169.2,334,172.3,334,173.3,334.7z"/>
			<path class="st0" d="M115.7,334.7c2.5-0.6,4.9-0.4,6,1.1c1,1.4,1,4.6-0.4,6.2c-3.5,3.8-10.3-0.1-8.2-5.5
				C113.4,335.5,114.2,335.1,115.7,334.7z M118.1,336c-2.7-0.3-1.7,3.7-1.3,5.5c0.4,0,0.9,0,1.3,0
				C118.8,340.3,118.7,337.3,118.1,336z"/>
			<path class="st0" d="M131.3,339.3c1.3,0.8,2.3,1.8,3.1,3.1c-2.7,1.2-5.4-0.4-6-2.6c-1.2,0.8,0.2,2.1,0.2,3.1
				c-1.7,0.2-2.9,0.2-5.1-0.2c-0.1-1,1-0.8,1.1-1.5c0-1.5,0-2.9,0-4.4c0-0.8-1.4-0.3-1.3-1.3c1.8-1.6,7.5-1,9.7-0.2
				C134.5,336.9,132.9,338.7,131.3,339.3z M128.3,337.3c0.8,0.2,1.4,0.1,2.2-0.2c0-0.4,0-0.7,0-1.1c-1.4-0.2-1.2,0-2.2-0.2
				C127.8,336.2,128.1,336.8,128.3,337.3z"/>
			<path class="st0" d="M71.5,340.9c-0.8-0.6,0-1.2,0-2.2c-1.3-0.2-0.3,1.9-1.8,1.5c0-0.7,0.4-1.1,0.2-2c-1,0.1-0.8,1.4-1.3,2
				c-2.8-3.3,3.1-6.7,4.2-3.1C73.2,338.4,72.6,340.3,71.5,340.9z"/>
			<path class="st0" d="M40.6,336.2c1.2,1.1,0.3,3,0.2,4.4c-0.4,4.9-0.6,10.1-1.8,14.3c-0.8-5,0.3-13.5,1.1-18.8
				C40.4,336.2,40.5,336.2,40.6,336.2z"/>
			<path class="st0" d="M187.6,336.9c2.3,1,4.4,3.4,4.4,6c-1.1,0-1.7-0.4-2.2-0.9c-1,0.3-0.7,1.8-2.2,1.5
				C187.3,341.6,187.1,338.3,187.6,336.9z"/>
			<path class="st0" d="M77.7,342.2c-0.5-1,0-1.2,0-2.2c-1.2-0.1-0.4,1.8-1.3,2c-0.9,0-0.6-1.3-0.7-2.2c-0.9,0.1-0.6,1.4-1.1,2
				c-2.1-0.3-0.8-3.8,0-4.4c1.2,0,2.7-0.2,3.5,0.2C78.9,338.6,79.9,342,77.7,342.2z"/>
			<path class="st0" d="M209.7,337.3c2.6,5.4-4.1,10.1-4.9,3.8c-0.4,5-6.5,4.8-6-0.9c0.5-0.3,1.1-0.6,2-0.4c0.2,0.4,0.3,1,0.4,1.5
				c1-0.2,0.3-0.8,0.7-1.5c0.5-0.4,1-0.7,2-0.7c0.2,0.4,0.3,1,0.4,1.5c0.9-0.2-0.3-1.8,0.7-2.2c0.4,0,0.9,0,1.3,0
				c0.5,0.4,0.4,1.2,0.9,1.5C207.6,338.7,207.6,336.9,209.7,337.3z"/>
			<path class="st0" d="M48.6,338.7c0.1,1.7-0.4,2.7-0.2,4.4c1.1-1.2,0.2-3,0.7-4.2c1.4,0.6,1,2.7,0.9,4c-0.2,4-1,9-1.5,11.7
				c-1-3.2,0.5-7.6,0.4-11.3c-1,3.5-2,9.5-0.9,13c3-3.9,1.5-11.9,2.9-16.8c0.9-0.3,0.9,0,1.8,0.2c-0.6,4.8,1.5,21.7-5.5,20.5
				c-0.9-0.1-1.1-0.9-2-1.3c-0.7-6.1,0.3-14.8,1.5-20.7C47.1,337.9,48,338.5,48.6,338.7z"/>
			<path class="st0" d="M91.4,338.4c0.1,0,0.3,0,0.4,0c0.8-0.1,0.7,0.7,0.7,1.3c1,1.5,3.3,2.2,5.1,3.3c0.6,0.4,2.4,1.7,2.4,2.4
				c0,2.1-6.1,2.9-7.3,4.9c0.1,0.7,1.3,0.3,1.3,1.1c0.2,1.3-1,1.3-1.1,2.2c0.7,0.5,4.2,0.1,5.3,0.2c1.2-0.1,0.8-1.7,2.2-1.5
				c1,1.9,0,4.2,0.4,6.6c-1.4,0.3-1.5-0.7-2-1.3c-2-0.1-3.7-0.5-5.7,0c0,1.3,1.4,1.3,1.3,2.6c-0.5,1.1-2.2,0.6-3.1,0.2
				c0-3.9-0.5-9.4,0.2-14.6c1.9,0.8,3.5-0.4,4.9-1.3c-0.5-1.6-2.2-1.9-3.3-2.9c-0.8,0.1-0.4,1.4-1.5,1.1
				C91.2,341.3,91.4,340.1,91.4,338.4z"/>
			<path class="st0" d="M87.2,339.3c0.9,1.2,0.5,4.8,0.2,6.4c-1.4-0.4-1.6-1.9-3.3-1.5C84.5,341.9,86.5,341.3,87.2,339.3z"/>
			<path class="st0" d="M55.2,340.4c0.4,4.7-1.6,9.8-0.2,14.6c3.5-2.4,1.2-10.8,3.3-13.9c2.3,0.6,1.1,4.4,0.9,7.1
				c-0.3,3.9-0.1,8.5-2,10.1c-1.5,0-3,0.1-4-0.4c-1.3-5.7-0.2-11.5,0.4-17.2C54,340.1,54.6,340.2,55.2,340.4z"/>
			<path class="st0" d="M56.1,341.3c0.2,0,0.3,0,0.4,0c0.4,3.3,0,8.6-0.9,11.9C54.3,349.6,55.9,345.5,56.1,341.3z"/>
			<path class="st0" d="M181.9,341.5c0.2,0.1,0.4,0.2,0.7,0.2c-0.8,4,2.3,9.5-3.1,9.7c-0.5-0.6-1.3-0.9-1.5-1.8
				c-1.9-0.1-1.8,1.7-2.9,2.4c-1.9-1.9,0.6-4.6,2-5.3c-0.7-1.4-1.8,0.7-2.4,0c-0.1-1.2-0.3-4.2,0.2-5.1c0.9-0.2,0.9,0.5,0.9,1.3
				c1.4,0.3,3,0.2,5.1,0.2C181.6,343.1,181.2,341.8,181.9,341.5z M178.8,346.6c0,1.1,0.4,1.6,0.7,2.4c1.7,0.3,2.1-1.4,1.8-2.4
				C180.8,346.3,179.2,346.3,178.8,346.6z"/>
			<path class="st0" d="M61.8,342.2c1,2.8-1.1,8.3,0.2,11.5c3.4-1.6,1.5-8.6,3.5-11c2,0.2,1,2.3,0.9,4c-0.2,2.9,0.3,7.1-0.7,8.8
				c-1.1,1.9-5.2,2.2-6,0c-0.9-2.4,0.3-10.7,0.9-12.6c0.1-0.4,0.3-0.7,0.4-0.9C61.3,342.1,61.5,342.2,61.8,342.2z"/>
			<path class="st0" d="M62.9,342.6c0.4,0,0.7,0,1.1,0c0.1,2.8-0.1,7.1-1.1,9.5c-1.6-2,0.2-6.1,0-8.8
				C62.9,343.1,62.9,342.9,62.9,342.6z"/>
			<path class="st0" d="M173,344c0.6,9.8-0.8,21.1-0.2,33.8c0.3,5.9,0.6,12,0.2,18.1c-0.8,11-8.2,20.8-14.1,27.4
				c-4.4,4.9-10,10.7-16.6,14.6c-1.9,1.1-5.6,3.3-7.1,3.3c-1.4,0-4.1-1.8-6-2.9c-2.1-1.1-3.9-2.1-5.3-3.3
				c-7.3-6.1-13.2-12.1-17.4-21.2c-2.3-4.9-4.6-10.2-5.1-15.9c-0.5-6.2,0.1-12.2,0.2-17.4c0.2-6.4-0.2-11.6-0.2-17.7
				c-1.1,2.2-0.1,5.2-0.7,7.7c-1.3,0.9-3.2,1.2-4,2.6c1,1.9,3-0.6,3.8-0.2c0.4,1.1,0.4,3.5,0,4.6c-1.3-0.9-6.1-0.7-8.2-0.4
				c0.7,3.1,6.3,1.6,8.2,1.5c0.3,1.4,0.1,3,0,4.4c-2.2-0.7-6.4-1.3-7.9-0.2c0.9,0.3,2.8-0.3,3.5,0.7c0.7,0.9,0.2,3,0.7,4.2
				c1.8,0.4,2-0.8,3.5-0.7c0.7,1.4,0.2,3.5,0.2,5.1c-1.9-1.2-6.7-1.3-8.8,0c-0.2-2.5-1.1-6.9,0.7-8.6c-0.5-0.3-0.9-0.7-1.1-1.3
				c0.8-4.7-0.9-9.8,0.7-14.8c1.5-1.3,4.8-0.6,4.9,1.5c0.8-1,2.6-1.1,2.9-2.6c-2.2-0.8-6.4-1.1-8.2,0.2c-0.3-1.2-0.4-3.7,0-4.9
				c2.3,0.8,7.3,1.4,8.8-0.2c1-0.3,0.6,0.9,1.1,1.1c0.8-5.7-1.2-13.1-0.2-18.5c4.3-1.1,9.1-0.2,14.3,0
				C134.5,344.8,157.7,343.2,173,344z M109.9,345.1c-0.2,0-0.3,0.2-0.2,0.4c1.3,0.6,2,1.9,4.4,1.5c0.6,1.8,3.2,1.1,3.8,3.3
				c0.3,1.4-0.8,2.9-0.2,4.4c0.4,1.1,1.7,2.3,3.5,2.2c2.4-0.2,2.4-3.7,5.7-2.6c0.1,1.5-0.5,4.2-0.7,6.2c0.9,0.4,2.7-0.4,3.5,0.4
				c0.4,1.5,0.2,3.5,1.1,4.4c2-0.3,4.2-0.6,5.7,0.9c1.2-0.7,2.8-1.1,4-1.8c2,1,4,1.8,6.4,2.2c1.2,0.2,2.4-0.3,3.5,0.2
				c0.8,0.3,0.9,1.5,1.8,2.2c0.3,0.2,1,0.3,1.5,0.7c1.7,1.2,3.6,2.1,4.4,3.8c-0.3,1.7,0.4,2.4,0.9,3.3c1,0.4,2.2-0.4,3.5,0
				c1.9,0.5,7.3,5,7.7,6c1.6,3.6-0.8,6.9-2.4,9.5c0.6,2.9,0.3,5.7-1.1,7.5c-1.7,0.6-3.1,1.5-5.1,1.8c-3,2.3-3.8,6.9-8.2,7.9
				c-1.2,2.5-3.5,3.8-5.5,5.5c-1,0-1.3-0.6-2.4-0.4c-0.3,1.3,1.1,0.8,0.9,2c-1.2,0.8-2.4,1.5-3.1,2.9c-0.3,0.6-0.4,1.3-0.4,2.2
				c-0.6,1.5-1.7,1.3-2.4,2.4c-2,3,0.4,8.4-2.4,9.5c-1.9-0.7-3.4-1.7-4.2-3.3c-1-2.1-0.1-4.4-0.2-6.8c-0.1-0.9-0.5-1.4-0.4-2.2
				c0.2-1.9,1.2-3.6,1.3-5.7c0-0.7-0.2-1.5-0.2-2.2c0-2.3,1.5-4.8,2-7.7c0.7-4.1,0.4-7.1,2-9.9c-0.7-0.9-2.4-1.3-3.3-2.6
				c-1.4-2-1.6-6.1-2.9-8.6c-0.6-1.1-1.4-1.4-1.5-2.2c-1-5.4,3.7-8.1,4.4-12.6c-0.8-0.6-1.2-1.5-1.8-2.2c-1.5,0.4-1.9-0.3-3.3,0
				c-1.6-2.5-4.4-3.7-7.7-4.4c-1-3.1-3-1.7-5.7-1.8c-2.2-0.1-3.3-1.5-5.1-1.8c-0.5-1.8-2.1-2.8-2.9-4.6c-1.1-2.8-0.9-6.4-3.3-8.2
				c0.1,3.3,3.2,5.9,2,9c-1.5-0.6-1.8-2.4-2.9-3.3c0.8-1.7-0.6-3.4-1.6-4.6c-0.7,2,0.1,4.1,0.2,6.2c0.6,9.9-0.3,19.9-0.2,31.1
				c0,3.9-0.1,8.8,0.2,13c0.9,9.6,6.5,19.8,11.3,25.6c3.9,4.7,9,9.7,14.8,13c1.6,0.9,4.8,3.1,6.2,3.1c1.3,0,4.6-2,6.2-2.9
				c10.3-5.7,16.5-14,23-22.9c3.6-5,6.4-10,7.1-17.2c0.4-5,0.5-10.6,0.2-14.8c-0.7-10.5,0.1-25.9,0.2-36.8
				C150.6,345,130.1,346.2,109.9,345.1z M93.2,373.5c0.7,0.3,1.6,0.4,2.2,0.2c0-1.2,0.2-2.7-0.4-3.3C92.8,370,92.4,372.4,93.2,373.5
				z M93.4,385.7c-0.6,0.2-0.5,1.1-0.7,1.8c0.4,0.6,1.7,0.5,2.4,0.2c-0.2-0.6,0.3-0.6,0.2-1.1C95.2,385.9,93.9,385.3,93.4,385.7z"/>
			<path class="st0" d="M218.9,353.2c1.4-2.6,0.8-5.4,0.9-8.6c0.7-0.5,1.4-1,2.7-0.9c0.1,5.5,1.2,13.9-4,14.8
				c-1.7-0.7-2.3-2.6-2.4-4.9c-0.4,0.7-0.5,1.7-0.7,2.7c-6.5,5-5.1-6.7-5.1-9.9c-0.4,3.6-0.3,10.9-4,9.9c-2.6-0.7-1.6-7.6-1.5-10.8
				c0.9-0.1,1.5,0.1,2,0.4c-0.1,1.9,0.4,3.1,0.2,5.1c1.3-1.2-0.6-5.6,1.5-6c0.8,0,1.5,0.1,1.5,0.9c0.5-0.9,1-1.7,2.4-1.5
				c0.2,3-0.1,5.2,0.2,7.9c2.3-1.2-0.4-7.3,2.2-8.2c1.7,0.5,0.6,3.9,0.9,5.7c0.8-2-0.2-6.9,2.6-6
				C219.2,345.9,218.2,350.6,218.9,353.2z"/>
			<path class="st0" d="M70,344.2c0.4-0.1,0.4,0.2,0.7,0.2c0.4,2.1,0.4,5.5-0.4,7.1C68.7,350.1,70,346.2,70,344.2z"/>
			<path class="st0" d="M226.4,344.2c1.1,2.2,0.7,6.3,0,9.3C225.5,351.9,225.9,346.4,226.4,344.2z"/>
			<path class="st0" d="M234.8,344.2c0.3,0,0.4,0,0.4,0.2c1,2.8,0.8,8.2,0,11c-1.7-2.1-0.6-7.2-0.7-10.6
				C234.5,344.5,234.8,344.5,234.8,344.2z"/>
			<path class="st0" d="M193.6,346.2c0.5,2.1,0.9,4.6,0.7,6.8c-1.6,1.1-3.3,1.9-6,2c-0.6-2.2-1.7-6.9-0.4-8.8
				c0.5,0.1,0.8,0.3,1.5,0.2c1.1,0.7,0.1,3.5,1.3,4.2c1.3-0.8,0.1-2.2,0.4-4C191.6,346.1,192.8,345.6,193.6,346.2z"/>
			<path class="st0" d="M87.4,347.7c-0.1,0.7,0.4,0.8,0.2,1.5c-0.8,0.7-3.8,0.7-4.6,0C82.7,346.9,85.7,347.9,87.4,347.7z"/>
			<path class="st0" d="M87.2,351c0.1,0.5,0.4,0.8,0.2,1.5c-1,0.9-2.4,0.4-4.2,0.7C81.4,350.9,85.3,350.2,87.2,351z"/>
			<path class="st0" d="M174.6,353.7c0.8,0,0.8,0.9,0.9,1.5c1.5,0.5,3.3,2.3,4.9,3.1c1.3,0.6,2.6,0.1,2.6,1.5c0,1.1-2.8,2.8-3.7,3.5
				c-1.2,0.9-3.7,2.2-4,3.3c-0.6,3.2,5.2,4.8,6,7.1c1-1.3-0.3-3.7-0.7-5.1c0.4-0.4,1.3-0.2,2-0.2c0.6,3.7,0.9,7.2,0.2,11
				c-2.9-1.3-4.7-3.8-6.6-6.2c-1.5,0.9-0.2,3.3,0,4.6c-0.6,0.2-0.9,0.2-1.5,0c-0.8-5.2-0.9-12.3,0-17.2c1-0.1,0.8,1,1.1,1.5
				c1.5-0.9,1-3.7,0.7-5.3c-1.2-0.4-1,1.3-1.8,0.7C174.2,356.8,174.2,354.6,174.6,353.7z M178.1,360.3c0.8,0,1.1-0.3,1.1-1.1
				c-0.3-0.2-0.6-0.3-1.1-0.2C178.3,359.7,177.7,359.9,178.1,360.3z"/>
			<path class="st0" d="M144.6,360.3c-1.3,0.9-4.4,0.7-5.7-0.2c-0.1-0.8,1.2-0.1,1.3-0.7c-2.3-2.2-7.2-1.8-9.7-3.8
				c1.8-1.7,5.9-1.5,7.7-0.4c1,0.6,1.9,2,3.1,2.6C142.8,358.7,144.8,358.8,144.6,360.3z"/>
			<path class="st0" d="M193.6,355c0.6,2.1-0.1,4.8-0.9,6.4c-0.7,0.1-1-0.1-1.5-0.2C190.9,358.7,190.3,353.8,193.6,355z"/>
			<path class="st0" d="M87.6,355.7c0.5,2.6,0.4,5.5,0,8.2c-0.5,0-0.7,0.4-1.3,0.2c-0.6-2,0.1-4.3-0.9-5.5c-1.4,1.2,0.6,4.9-0.9,5.5
				c-2.4-0.8-1.2-6-1.5-8.2C84,355.4,86.1,355.3,87.6,355.7z"/>
			<path class="st0" d="M189.6,355.7c1.1,1.1,0.7,4.7,0.4,6.4c-0.6,0.3-1.1,0.6-2,0.7C187.5,360.7,185.9,355.2,189.6,355.7z"/>
			<path class="st0" d="M76.8,356.3c1,2.7,0.8,6.8,0.9,10.1c0.2,4.4,1.1,8.6,0.4,12.1c-3.5-1.6-4.6-8.8-5.3-13.5
				c-0.4-2.8-1.2-6.3,0-8.6c2.7,1.2,1.5,6.2,2.4,9C76.5,362.9,72.9,355.7,76.8,356.3z"/>
			<path class="st0" d="M71.5,357.9c1,9.1,2.2,18.6,4.4,27.1c0.3,1.2,1.2,2.2,0.7,3.5c-6.9-4.3-7.9-15.1-9-24.3c-0.3-2-1.5-4-0.4-6
				c0.6,0.1,1.1,0.3,1.8,0.4c0.9,3.8,0.7,8.7,2,12.1c0.4-3.4-1-9.2-0.9-13.5C70.9,357.2,70.9,357.9,71.5,357.9z"/>
			<path class="st0" d="M65.4,358.7c1.7,2.2,1.1,6,1.5,9.7c0.1,1.2,0.9,2.3,1.1,3.5c0.1,1-0.4,2-0.2,2.9c0.3,1.3,1.4,2.4,1.8,3.8
				c0.7,2.7,0,5.9,0.2,9c0.3,3.5,1.5,6.5,1.5,9.7c-2.4-0.8-3.7-3.7-5.1-6c-1.3-2.2-3.1-4.7-3.7-7.5c-1.9-7.4,0-16.7-2-24.7
				c0.9-0.5,1.3,0.4,2.2,0.4c1,7.9,1.2,14,2.4,21.6c0.4-4.6,0.2-8.7-0.4-13.7c-0.4-3.2-1.9-8.1,0.4-9.1
				C65.3,358.5,65.3,358.6,65.4,358.7z"/>
			<path class="st0" d="M215,359.4c1.5,1,0.9,3.4,0.9,4.9c-0.4,10.4-3.6,22.8-9.3,28.9c-0.7,2-2.4,4.2-4.6,4
				c1.6-4.8,3.3-9.2,4.8-15.2c1.3-5,2.4-9.9,2.7-15.4c0.1-2.3-0.8-5,0.9-6.4c1.6,0.2,1.1,2.4,1.1,3.8c0,4.4-0.5,8.5-0.7,12.4
				c1.5-4.1,2.7-9.6,2-15.7C213.5,360.2,213.9,359.5,215,359.4z"/>
			<path class="st0" d="M152.3,362.7c-2.3-0.4-4.9,0.4-6.2-0.4c0-0.7,1-0.5,1.5-0.7c0.1-0.7-0.6-0.6-0.9-0.9
				C148,359.4,154.1,359.2,152.3,362.7z"/>
			<path class="st0" d="M63.8,401.6c-5.3-0.8-6.2-7.1-7.3-13c-0.6-3.2-1.8-6.3-2-9c-0.3-4.7-0.9-9-0.7-13.7c0.1-1.6-1-3.9,0.7-4.6
				c2.1,0.7,1.4,3.5,1.5,5.3c0.4,6.7,0.2,11.6,1.5,17.4c-0.1-7-0.6-15.3-0.7-23.2c3.1-2.6,2.3,0.8,2.6,4.2c0.2,1.9,1,2.9,0.9,4.4
				c-0.1,1-0.7,1.8-0.7,2.4c0,1.1,0.9,2.1,1.1,3.3c0.4,2.2-0.5,5,0,8.2c0.3,1.9,1.4,3.8,1.5,5.7C62.9,393.7,62.5,398.3,63.8,401.6z"
				/>
			<path class="st0" d="M203.3,359.9c2,0.7,2.8,0.5,4.9,0c1.3,4,0.5,9.7-0.7,14.1c-0.9,3.4-2.7,7.2-4.6,9.7
				c-1.4,1.8-3.5,3.8-5.7,3.8c0.5-3.8,2.7-7.3,4-11.3c1.4-4.6,1.7-9.8,2-15.7C203,360.2,203.3,360.1,203.3,359.9z M204.2,372.7
				c0.3-2.3,1.9-4.5,1.3-7.1C205.2,368,204.1,370.7,204.2,372.7z"/>
			<path class="st0" d="M218.1,383c1.2-1.6,1-3.7,0.9-6c-0.2-3,0.8-5.7,1.1-8.6c0.3-2.7-0.8-5.1-0.4-7.3c0.6-0.5,1.5-0.9,2.7-0.9
				c0.9,8.6-0.4,22.4-3.8,31.1c-1.3,3.5-3.5,6.3-4.4,9.5c-1.5,0.9-2,2.9-4.2,3.1c0.9-5.2,4.3-9.7,4.2-15.4c0-0.9-0.5-1.9-0.4-2.9
				c0-1.1,0.6-1.9,0.9-3.1c0.6-2.9,0.3-7.1,0.9-11c0.5-3.4,1.1-6.1,1.1-10.4c0-0.4,0.3-0.5,0.2-0.9c2.9-0.8,2.8,5.7,2.6,7.5
				C218.9,372.3,217.3,378.7,218.1,383z"/>
			<path class="st0" d="M157.2,362.9c-1,0.5-3.1,0.4-2.9-1.1C155.2,361.2,157.1,361.4,157.2,362.9z"/>
			<path class="st0" d="M224.7,361.6c1.5,2.1,1.5,5.6,1.3,8.6c-0.4,9.2-0.7,16.7-1.1,24.3c2.1-5.2,1.3-12.2,1.8-18.5
				c0.4-4.8,1-8.9,0.2-13.7c0.8,0,1.4-0.9,2-0.4c1.3,1.1,1.1,3.3,1.1,5.1c0.3,11.8-0.6,25.5-2.9,35.5c-0.5,2.5-1.3,4.6-2.2,6.8
				c-0.8,2-1.2,4.9-3.8,5.3c1.7-10.9-0.7-22.6,1.3-34.2c0.2-1,0.8-1.9,0.9-2.9c0.6-5.2-0.9-10.8,0.4-15.4c-0.1-0.4,0.2-0.4,0.2-0.7
				C224.4,361.3,224.4,361.6,224.7,361.6z"/>
			<path class="st0" d="M52.6,361.8c1.3,3.4,0.1,6.4,0.2,9.5c0,1.2,0.8,2.4,0.9,3.7c0.1,2.2-1.1,4.4-0.9,6.4
				c0.4,3.6,3.1,4.9,2.6,8.4c-0.2,1.4-1.1,2.3-1.3,4c-0.3,2.8,1.8,5.4,2.2,8.4c0.5,3.9-0.8,6.8-1.3,10.8c-2.2-1.3-2.8-3.9-3.7-6.2
				c-1.5-3.7-3.2-7.4-4.2-11.9c-1.2-5.4-1.5-10.8-1.8-16.5c-0.3-6.1-0.5-11.7-0.2-16.6c1.6,0,2.4,0.8,3.5,1.3
				c0.4,12.4,0.5,26.2,3.3,37.3c0.6-2.4-0.2-5-0.4-7.7c-0.9-8.8-1.6-18-1.3-27.1c0.1-1.7-0.5-2.5,0.4-3.8
				C51.5,361.6,51.7,361.6,52.6,361.8z"/>
			<path class="st0" d="M141.9,362.3c-0.3,1.2-3.1,0.7-3.1-0.4C139.7,361.4,141.5,361.6,141.9,362.3z"/>
			<path class="st0" d="M191.8,362.5c0.4,0.7,0.3,2.4,0,3.1c-1.3,0.6-3.1,1.3-4.2,0.9c-0.2-1.2,0.4-1.7,0.2-2.9
				C189,363.2,190.5,362.1,191.8,362.5z"/>
			<path class="st0" d="M44,363.6c1.2,3,0.1,5.9-0.2,8.8c-0.3,3.4,1.3,5.5,1.1,8.8c-0.1,1.2-1,2.2-1.1,3.3c-0.2,1.8,0.3,4.3,0.9,6
				c0.3,0.8,0.9,1.4,1.1,2.2c0.3,1.3-0.1,3,0,4.4c0.2,3.1,1.5,5.9,0.4,9c-0.6,0.8-0.5-0.9-1.3-0.7c0.6,5.1,2.1,14.3,3.1,19.9
				c0.3,1.8,0,3.2-0.4,4.9c-2.6,0-3.7-3.1-4.4-5.1c-0.8-2.3-1.8-5-2.4-7.3c-4.2-15.9-7.7-35.6-6.4-54.1c4.9,0.3,3.1,7.4,3.3,12.1
				c0.4,10.6,0.2,24.2,4,33.5c0.7-5.4-1.1-10.8-1.5-16.3c-0.8-10-0.5-17.9-0.2-28.2C41.4,364.8,42.3,363.8,44,363.6z"/>
			<path class="st0" d="M87.2,375.3c-2-1-2-4-2.4-6.6c1.3-0.3,2.7-2.2,3.5-0.4C87.9,370.6,88.3,373.7,87.2,375.3z"/>
			<path class="st0" d="M187.8,367.6c1.4,0.3,1.5,0.8,2.9,0.2c-0.5,2.8-1.4,5.3-2.9,7.3C187.3,373.3,187.9,369.7,187.8,367.6z"/>
			<path class="st0" d="M159.1,374c1.2-0.1,1.7,0.7,1.8,1.8c-0.2,0.1-0.4,0.2-0.4,0.4C159,376.5,159.1,375.2,159.1,374z"/>
			<path class="st0" d="M174.8,378.8c0.8,0.2,0.5,1.4,0.9,2c2.3,1.1,3.9,3.9,6.6,3.8c3.6,4.1-7.3,4.8-7.5,9
				c-1.4-0.3-0.4-2.8-0.2-3.5c-0.4-1.2-0.9-2.7,0.2-3.3c0.9-0.2,0.4,1.1,1.1,1.1c1.3-0.4,1.3-4.4,0.2-5.1c-1-0.3-0.8,1.4-1.5,0.7
				C174.3,382.4,174.1,379.6,174.8,378.8z M178.3,386.3c0.9,0,1.3-0.3,1.3-1.1c-0.4-0.4-0.8-0.7-1.5-0.7
				C178.1,385.2,178,386,178.3,386.3z"/>
			<path class="st0" d="M95.2,392.9c-0.4,1.5-2.5,1.3-2,3.8c2.3-1,1.7-4.9,6-4c3,0.9,0.7,5.7,2,7.5c-1,0.3-2.7,0.7-3.8,0.2
				c0.5-1.2,2.8-2.6,1.3-4.4c-2.2-0.1-2,3-3.7,3.8c-3.3,1.4-3.9-3.5-3.3-6.8C92.4,392.5,94.3,392.7,95.2,392.9z"/>
			<path class="st0" d="M174.4,398.2c0.9-0.1,0.8,0.8,1.1,1.3c1.3,0.4,2.6,0.9,4.2,1.1c1,0.1,1.1-1,2-0.4c0,1.9-0.7,3.3-1.3,4.6
				c-1.1,0.5-1.3-1.2-2.4-1.3c-0.7,0.3-0.9,1-0.9,2c0.6,0.6,2.2,0.2,2.7,0.9c-0.3,1.7-0.9,3.1-1.8,4.2c-1.4-1.8-4.6-2.8-6.8-2.4
				c0.4-1.9,0.9-3.6,2.2-4.6c0.8,0,0.2,1.5,1.3,1.3c0.9-0.1,0.8-1.1,1.1-1.8c-0.4-1-1.5,0-2.4-0.2
				C173.7,401.4,173.9,399.7,174.4,398.2z"/>
			<path class="st0" d="M187.6,400.2c1.1-0.1,1.1,0.9,1.5,1.5c7.2-2.2,10.8,3.7,15.9,6.2c3.6-2,10.4-1.9,11.5,2.6
				c-1.4,1-2.7-1-4.6-0.2c0.5,1.7,4.7,3.8,2.6,6.8c-2.6-1.3-4.3-3.8-7.5-2.6c-4.3,1.5-2.3,8.3-0.7,11.7c-3,1.1-7.1-2.7-7.5-6.4
				c-0.2-1.8,0.9-3.7,0.7-5.3c-0.2-1.8-3.5-4.5-4.8-6c-1.9-1.9-3.3-3.7-5.1-5.5c-0.1,2,1.3,4.3,1.3,6.8c-1.5,1-5.3,0.8-6.6,1.3
				c-1.5-0.6-1.6-4.8-0.7-5.7c1.3-0.2,0.9,1.3,1.5,1.8C187.8,406.3,186.8,402.7,187.6,400.2z M201.3,410.6c0.7-0.9-0.5-1.3-1.1-1.5
				C200.3,409.8,200.5,410.5,201.3,410.6z"/>
			<path class="st0" d="M85.9,400.7c-1.5,2.1-3.8,3.4-5.7,5.1c-1.9,1.6-3.6,3.5-5.3,5.3c2.5,6.6,0.6,15.5-7.3,14.1
				c0.6-2.5,3.2-4.1,2.9-6.8c-0.2-1.5-1.2-2.6-2.2-4c-2.7-1.2-6.3-1.2-9.7-0.7c-0.6-3.4,2.8-4.5,6-4.9c-1.3-1.9-4.8,0.6-6.2-0.7
				c0.7-5.2,9.9-4.3,12.1-1.1c2.1-1.1,5.3-5.7,7.9-6.2C80.7,400.5,83.6,401.5,85.9,400.7z M72.9,408.6c0.5,0.4,1.2-0.5,1.3-1.1
				C73.6,407.7,72.9,407.9,72.9,408.6z"/>
			<path class="st0" d="M103.3,410.8c-1.2,0.2-1.3-0.8-2-1.1c-1.5,0.3-3.1,0.5-4.6,0.9c-0.6,0.8,0.4,1.8-0.4,2.2
				c-1.1-0.4-1.3-2-1.8-3.1c-0.6-1.5-1.2-3-1.5-4.9c0.3-0.2,0.4-0.6,0.7-0.9c1-0.2,1.4,0.3,2,0.7c-0.8,0.9-0.9,3.1,0.2,3.8
				c0.8,0.1,1.1-0.3,1.3-0.9c0.3-1-0.8-0.7-0.9-1.3c0-1.3,1.8-1.3,2.6-0.7c0.1,0.8-1,0.5-0.7,1.5c0.2,0.9,1.8,0.3,2.2,0
				c0.2-2.1-1.1-2.7-2.2-3.5C101.7,400.1,103,408.4,103.3,410.8z"/>
			<path class="st0" d="M88.3,404.9c0.3,1.9,0.9,3.6,0.9,5.7c-3.2-0.1-4.3-3.7-3.7-6.8C86.2,403.5,87.6,404.4,88.3,404.9z"/>
			<path class="st0" d="M84.1,411.5c0,1.1,0.2,2.2,0.4,3.1c1,0,0.6-1.5,1.3-1.8c1.6,0.2,3,0.5,3.3,2c2.6-2.1,4.6,1.8,3.1,4.4
				c-3.9-0.9-8-1.6-11.3-3.1c-0.4-1.9,0-3-0.2-4.9C81.8,410.7,83.2,411.3,84.1,411.5z"/>
			<path class="st0" d="M189.8,411c1.7-0.4,2.4,0.9,1.8,2.2C189.8,414.2,188.4,412.2,189.8,411z"/>
			<path class="st0" d="M188,413c-0.6,1-2.8,1.3-3.1-0.2C185,410.9,188.1,411.2,188,413z"/>
			<path class="st0" d="M183.2,411.9c0.1,0.5,0.3,0.8,0.2,1.5c-0.4,0.4-0.9,0.5-1.8,0.4C180.4,412.9,181.5,411,183.2,411.9z"/>
			<path class="st0" d="M191.6,415c-0.2,0.5,0.1,2,0,3.1c-4.2,0.8-7.4,0.6-11.5,0.9c-0.6-0.8-0.9-2.6-0.4-3.8
				C183.9,414.5,187.3,414.2,191.6,415z"/>
			<path class="st0" d="M111,423.4c-2.4,0.4-5.6,1.5-6,4.6c-1.9-0.6-2.8-2.3-3.5-4.2c2.2,0.5,4.6-1.6,6-3.3c-0.5-1.2-1.4-2-3.1-2
				C105.6,413.6,110.1,421.8,111,423.4z"/>
			<path class="st0" d="M94.3,422.3c-3.5,0.5-8.9-1.5-13.2-2.2c0.1-0.7-0.2-1.8,0.2-2.2c2.6-0.2,5.1,0.9,7.9,1.5
				C91.4,419.9,94.9,419.8,94.3,422.3z"/>
			<path class="st0" d="M184.7,426.7c-0.5,0.4-1.1,0.8-2.2,0.7c-0.7-0.9-0.6-1.3-0.7-2.6c-0.9,0.2,0.1,2.4-1.3,2.2
				c-0.3-0.8-0.4-3,0-3.8c1-0.3,0.5,1,1.1,1.1c0.5-0.5-0.2-1.7-0.9-1.8c-1.8,0.4-1,3.4-1.5,5.1c-1.1,0.1-1.8-0.1-2.4-0.4
				c0-2.7-0.3-5.7,1.1-7.1C182.3,418,185.7,420.9,184.7,426.7z"/>
			<path class="st0" d="M192.7,425.8c-1.3,0.4-1.5-0.1-2.2-0.7c-0.6-0.1-0.2,0.8-0.7,0.9c-1.6,0.1-0.5-3-0.9-3.5
				c-1.5,0.4-0.1,3.6-0.9,4.6c-0.8,0.4-1.9,0.3-2.4-0.2c-1-4.5,0.1-8.4,5.1-7.3C191.9,421,193.4,423.3,192.7,425.8z"/>
			<path class="st0" d="M80.8,422.1c0.1,0.5,0.3,0.8,0.2,1.5c-0.4,0.6-1.8,0.6-2.2,0C78.5,422.1,79.6,421.5,80.8,422.1z"/>
			<path class="st0" d="M86.3,422.7c0.3,0.4,0.6,0.9,0.7,1.5C85.7,426.5,83.2,422.4,86.3,422.7z"/>
			<path class="st0" d="M91.6,425.2c-0.8,0.4-1.6,0-2.2-0.4C89.3,423,92.3,422.9,91.6,425.2z"/>
			<path class="st0" d="M117,430.2c-0.8,0.2-0.9-0.4-1.8-0.2c-1.7,1.5-4.3,2-4.6,4.9c-1.8-1.6-8-5.8-3.1-7.5c0.4,1-0.5,2.9,0.9,3.3
				c1-0.1,1.5-0.7,2-1.3c0.1-1-1-0.8-1.5-1.1c0.1-1.1,0.6-1.8,2-1.5c-0.1,0.7,0,1.4,0.4,1.5c0.8,0,1.3-0.4,1.5-0.9
				c0.2-1.6-1.6-1.4-2.4-2c0.3-0.7,0.7-1.2,1.5-1.3C113.6,426.1,115.8,427.7,117,430.2z"/>
			<path class="st0" d="M97.6,424.7c0.2,0.7-0.2,0.8-0.2,1.3c-0.4,0-0.9,0-1.3,0C94.8,425,96.6,423.5,97.6,424.7z"/>
			<path class="st0" d="M79.3,426.5c0.8,2.3-1,5,0.2,7.5c4.1,2.3,3-3.9,4-6.2c0.9-0.4,1.9,0.1,2.6,0.4c-0.7,2.2,0.9,7.4-1.5,8.8
				c-2.5,1.5-6.4,0.1-8.4-1.8c0-3.4-0.1-6.8,1.1-9C78.2,426.1,78.4,426.6,79.3,426.5z"/>
			<path class="st0" d="M158.3,427.4c0.6,2.5,2.5,3.7,4.2,5.1c-0.8,1.1-1.5,2.3-3.1,2.6c-0.5-1.8-1.9-2.8-2.9-4.2
				c-1.6,0.7-2.6,2-3.3,3.5c-0.8,0.2-0.6-0.5-1.3-0.4c-0.7-0.1-0.6,0.6-1.1,0.7c-0.3,4.1-0.7,6.8-1.5,10.2c-3.6-0.6-5.5-3.8-9.3-3.5
				c1.2-1.5,2.7-2.7,4.9-3.3c0.6,0.7-0.8,1.4,0.2,2c1.8-0.8,3.9-1.4,4.4-3.5c0.2-0.8-0.8-0.4-0.9-0.9c0.7-1.3,1.5-2.5,3.3-2.6
				C153.8,430.8,155.3,428.4,158.3,427.4z M147.2,441.1c0.4,0.2,0.6,0.5,1.1,0.7c0.4-0.5,0.6-1.2,0.7-2
				C148,439.8,147.4,440.2,147.2,441.1z"/>
			<path class="st0" d="M89.9,428.9c0.5,2.5-1.8,6.7,1.1,6.8c2.8,0.1,1.8-4.3,2.6-6.4c1-0.4,1.5,0.1,2.4,0.4c0,2.9,1,5.4-0.2,7.5
				c-1.4,2.3-6.5,2.1-8.2,0.4c-1.9-1.8-0.4-5.6-0.7-8.8C87.8,428.3,89,428.5,89.9,428.9z"/>
			<path class="st0" d="M81,429.1c0.2,0,0.4,0,0.7,0c0.3,1.3,0.2,2.7-0.4,4.2C80,432.5,80.8,430.5,81,429.1z"/>
			<path class="st0" d="M51.9,430c0.3,2.8-2.3,2.8-4.6,3.1c0.1,0.8,0.6,1.3,0.4,2.4c-0.5,0.4-1.5,1-2.2,0.4
				c-0.7,0.3-0.8,1.2-1.3,1.8c-1.1-0.2-1.6-1.6-1.5-2.9c0.3-4,5.6-2.8,7.7-5.3C51.1,429.4,51.4,429.8,51.9,430z"/>
			<path class="st0" d="M174.4,430.2c0.1,3.1,1.3,6.3,0.4,9.1c-2.4,1.2-5.7,1.9-8.4,1.5c-1.8-1.6-2-6.7,1.8-6.2
				c0.2,0.6,0.1,1.5,0.7,1.8c1,0.1,0-1.7,0.7-2c1.1-0.2,0.6,1.4,1.3,1.5c0.8-1.1-0.3-4.5,0.2-6C172.3,429.6,173.5,429.6,174.4,430.2
				z M170.4,438c0.8,0.1,1.2,0.6,2.2,0.4C172.6,437.6,170.6,437.2,170.4,438z"/>
			<path class="st0" d="M99.8,430.2c0.7,1.6-0.5,5,0.9,6c1.4-0.9-0.3-3.7,1.3-4.2c0.7,1.3-0.4,3.6,0.4,4.4c1.1-0.4,0.5-2.5,1.3-3.1
				c1,0.1,1.8,0.4,2.2,1.1c-0.6,1.7,0,3.2-0.9,4.4c-1.5,1.9-6.2,1-7.3-0.7c-1.4-2.1-0.1-4.7-0.7-7.7C97.9,430.2,99,429.9,99.8,430.2
				z"/>
			<path class="st0" d="M179.4,439.7c-1.7-2.2-2.2-5.6-2.7-9c0.7-0.3,2-0.3,2.7,0c0.3,1.6,0.7,3.1,1.1,4.6c2.8,1.1,3-2.6,2.2-4.6
				c2.4-3,4.4,3.6,3.7,6.4C185.8,440,182,440.2,179.4,439.7z"/>
			<path class="st0" d="M190,430c2,0.1,2.3,4,1.6,5.3C190.2,434.4,190.2,432.1,190,430z"/>
			<path class="st0" d="M91.4,430.2c0.2,0.1,0.4,0.2,0.7,0.2c-0.1,1.6,0,3.2-0.7,4.2C90.3,434.2,90.5,430.7,91.4,430.2z"/>
			<path class="st0" d="M181.7,430.5c0.6,0.8,1,2.8,0.4,4c-1.8-0.1-1.3-2.4-1.8-3.8C180.6,430.4,181.1,430.4,181.7,430.5z"/>
			<path class="st0" d="M121.2,434.4c1.7,0.3,2.5,1.5,3.8,2.2c-0.2,0.6-1,0.6-1.1,1.3c0.3,1.4,1.5,1.9,2.9,2.2c0.8,0,1-0.6,0.9-1.5
				c2.2,0.6,4.1,1.7,5.7,2.9c0.4,1.3,0.1,3.4,1.5,3.8c1.8-0.9,0.2-2.1,0-3.5c1.5,0.1,2.8,0.6,4.2,0.9c-0.5,2.6-2.2,6.2-0.9,8.6
				c-4.1,0.8-11.3-2.8-6.2-6c-0.7-1.4-1-3.1-1.8-4.4c-4.8-0.4-6.5,3.5-10.2,3.5C119.8,441.3,121.8,437.9,121.2,434.4z M123.2,441.5
				c0.5,0.4,1.4-0.3,2-0.4C125.1,439.7,122.8,440,123.2,441.5z M132.9,447.2c-0.3,1.5,1,2.3,1.8,2c0.5-0.4,0.6-1.8,0.2-2.4
				C134,446.3,133.4,446.7,132.9,447.2z"/>
			<path class="st0" d="M50.4,438.6c0,0.7-0.5,1.8-0.4,2.9c-1.4,0.2-1.4-1.1-1.5-2.2C48.8,438.9,49.5,438.7,50.4,438.6z"/>
			<path class="st0" d="M230.9,441.7c0.8-0.1,1.3,0.1,1.1,0.9C231.4,443.1,230.6,442.7,230.9,441.7z"/>
			<path class="st0" d="M236.2,442.2c0.1,1.1-0.5,1.5-1.3,1.1C234.8,442.4,235.3,442.1,236.2,442.2z"/>
			<path class="st0" d="M229.1,444.8c0.1,1.1-0.5,1.4-1.3,1.5C226.6,445.6,228,443.9,229.1,444.8z"/>
			<path class="st0" d="M46.4,447.2c-0.5,0.3-0.9,0.6-1.8,0.4c-0.2-0.5-0.7-0.9-0.2-1.3C44.8,446.2,46.5,446.2,46.4,447.2z"/>
			<path class="st0" d="M232.8,447.2c0.4,1-1.3,1.2-1.1,0.2C232,447.3,232.3,447.2,232.8,447.2z"/>
			<path class="st0" d="M183.4,449.2c-0.3,0.4-1.3,0.3-1.1-0.4C182.6,448.4,183.6,448.5,183.4,449.2z"/>
			<path class="st0" d="M66.2,448.8c0.8,1.3,1.2,2,1.1,4C65.6,452.8,63.7,449,66.2,448.8z"/>
			<path class="st0" d="M42.2,449.2c0,0.7-0.7,0.7-1.3,0.7c0-0.2,0-0.4,0-0.7C41.3,448.7,41.5,449.3,42.2,449.2z"/>
			<path class="st0" d="M58.5,452.5c-0.8-1.5,1-4.8,2.2-2.9C60.4,451,60.4,452.7,58.5,452.5z"/>
			<path class="st0" d="M62.1,449c0.4,0,0.7,0,1.1,0c0.4,1.1,1.2,3.9-0.4,4C61.2,452.6,61.7,450.2,62.1,449z"/>
			<path class="st0" d="M203.3,452.3C199.4,454.4,202,448.1,203.3,452.3L203.3,452.3z"/>
			<path class="st0" d="M207.7,452.3c0.1,1.1-2.3,1.2-2.4,0.2C205.3,451.4,207.6,451,207.7,452.3z"/>
			<path class="st0" d="M75.5,452.7c-0.9,1.5-1.9,2.8-4,3.1C71,453.8,73.4,452,75.5,452.7z"/>
			<path class="st0" d="M78.6,453.9c-0.2,1-1.3,2.8-3.1,2.9c-0.1-0.2-0.2-0.4-0.4-0.4C75.3,454.7,77.5,452.5,78.6,453.9z"/>
			<path class="st0" d="M81.9,454.3c-0.2,2.3-1.2,4.6-3.3,4.2C78.8,457.1,79.8,453,81.9,454.3z"/>
			<path class="st0" d="M47.5,454.1c0.4,0,0.7,0,1.1,0c0,0.3,0,0.4,0.2,0.4C48.7,455.3,47.1,455.1,47.5,454.1z"/>
			<path class="st0" d="M85,454.5c0.4,1.4,2.2,4.3-0.4,4.6C84.5,457.7,82.5,454.5,85,454.5z"/>
			<path class="st0" d="M203.9,454.5c0.4,0.5-0.1,1.4-0.4,1.8c-0.2,0-0.4,0-0.7,0c-0.3-0.3-0.2-1-0.2-1.5
				C203.3,454.9,203.3,454.4,203.9,454.5z"/>
			<path class="st0" d="M91.8,454.7c0.1,0,0.3,0,0.4,0c1.4,0.7,1.6,2.7,2.4,4c-0.4,0.3-0.5,0.8-1.3,0.7
				C92.8,458,91.4,456.4,91.8,454.7z"/>
			<path class="st0" d="M87.9,455c0.4,0,0.7,0,1.1,0c0.4,1.4,1.5,3.3,1.1,4.9c-0.2,0-0.4,0-0.7,0C88.3,458.9,87.5,456.6,87.9,455z"
				/>
			<path class="st0" d="M172.4,455.2c0,0.2,0,0.4,0,0.7c-0.3,0.3-1.2,0.3-1.5,0C171.1,455.3,171.8,454.7,172.4,455.2z"/>
			<path class="st0" d="M42.6,455.2c0.6,0,1.1,0.1,1.3,0.4c0,0.7-0.6,0.8-1.1,0.9C42.6,455.9,42.4,455.8,42.6,455.2z"/>
			<path class="st0" d="M116.5,458.7c-1.7,0-2.8-2.5-2-3.5C116,455.6,116.5,457,116.5,458.7z"/>
			<path class="st0" d="M110.6,455.4c0.1,0,0.3,0,0.4,0c1,0.4,1.9,2.8,0.9,3.8C110.8,458.7,110.3,456.6,110.6,455.4z"/>
			<path class="st0" d="M208.1,455.6c2.2-0.3,2,2.1,0.4,2.4C208.5,457.2,207.4,456.6,208.1,455.6z"/>
			<path class="st0" d="M196.2,456.7c0.1,1.1-0.5,1.6-1.1,2c-0.8,0.1-0.7-0.7-1.1-0.9C194.2,457,195,456.6,196.2,456.7z"/>
			<path class="st0" d="M67.8,458.5c-0.4,0.7-1.5,1.6-2.4,1.1C65.2,458.4,67.4,457,67.8,458.5z"/>
			<path class="st0" d="M174.4,458.5c0.1,0.9-0.1,1.5-0.7,1.8c-0.7,0.2-0.7-0.4-1.1-0.4C172.5,458.6,173.4,458,174.4,458.5z"/>
			<path class="st0" d="M205.7,458.9c0.3,0.7,0.1,1-0.2,1.5c-0.8,0.1-1.4-0.1-1.8-0.4C203.9,459.2,204.8,459,205.7,458.9z"/>
			<path class="st0" d="M48.8,459.1c1-0.1,1.4,0.3,1.3,1.3C49.1,460.6,48.8,460,48.8,459.1z"/>
			<path class="st0" d="M71.5,459.4c0.2,1.3-1,2.9-2.6,3.1C69.1,460.7,70.1,459.9,71.5,459.4z"/>
			<path class="st0" d="M53.7,460c0.7-0.2,0.7,0.3,1.1,0.4C54.7,460.9,53.2,460.9,53.7,460z"/>
			<path class="st0" d="M199.1,460.3c-0.1,1-0.6,1.6-1.1,2.2C195.9,462.1,197.4,459.2,199.1,460.3z"/>
			<path class="st0" d="M107.5,466c-2.8,0.6-3.5-2.8-5.1-4.2C104.5,459.8,106.7,463.9,107.5,466z"/>
			<path class="st0" d="M75.5,461.4c0.1,1.7-0.3,2.9-1.8,3.1C73.2,463.1,73.6,461,75.5,461.4z"/>
			<path class="st0" d="M79.3,462c0.6-0.2,0.4,0.4,0.9,0.4c-0.5,1-0.2,2.9-1.1,3.5C77.3,465.4,78.8,463,79.3,462z"/>
			<path class="st0" d="M83.2,462c0.4,0,0.7,0,1.1,0c0.8,1.1,1.6,4.7,0,5.5C82.7,466.6,83.3,463.7,83.2,462z"/>
			<path class="st0" d="M102.2,465.8c-0.1,0.5-0.7,0.6-0.9,1.1c-2.5,0-3.9-3.2-3.3-4.9C100.2,462.5,100.8,464.5,102.2,465.8z"/>
			<path class="st0" d="M95.8,467.3c-2.3,0.2-3.9-4.5-1.5-4.9C95,463.8,96.4,465.5,95.8,467.3z"/>
			<path class="st0" d="M88.7,462.9c0.3,0,0.6,0,0.9,0c0.6,1,1.2,3,0.7,4.4C88.1,467.6,88.4,464.4,88.7,462.9z"/>
			<path class="st0" d="M123.8,463.1c1.5,0.3,2.5,1.2,2.9,2.6C125.2,466.4,123.4,464.4,123.8,463.1z"/>
			<path class="st0" d="M177.7,463.6c0.2,1.7-2.4,1.7-2.2,0C176,463.1,177.2,462.9,177.7,463.6z"/>
			<path class="st0" d="M170.8,463.6c0.3,0.4,0.3,1.6,0,2c-0.6,0-0.9-0.4-1.6-0.4C169.2,463.9,169.9,463.6,170.8,463.6z"/>
			<path class="st0" d="M122.7,466c-1.5,0.1-2.2-0.6-2.4-1.8C121.3,463.8,122.6,464.9,122.7,466z"/>
			<path class="st0" d="M166.2,464.4C166,469.1,161.9,463.3,166.2,464.4L166.2,464.4z"/>
			<path class="st0" d="M194.2,464.7c0.1,0.8-0.1,1.2-0.4,1.5C191.9,466.2,192.5,463.6,194.2,464.7z"/>
			<path class="st0" d="M147.2,465.1c1.4-0.2,0.9,1.6,1.8,2C148.2,468,147,466.5,147.2,465.1z"/>
			<path class="st0" d="M143.7,465.8c1.7,0.1,2.7,2.8,2,4C144.1,469.4,143.2,467.5,143.7,465.8z"/>
			<path class="st0" d="M152.7,466.7c1.4,1.1,3.3,2.7,2.9,4.9C154.4,471.1,152.1,468.9,152.7,466.7z"/>
			<path class="st0" d="M139.1,466.9c1.7,0.1,3,2.7,2,4C139.8,470.2,138.7,468.4,139.1,466.9z"/>
			<path class="st0" d="M135.1,467.5c1.8,0.6,3.3,2.6,2.9,4.6C136.5,471.3,134.3,469.2,135.1,467.5z"/>
			<path class="st0" d="M171.9,468c0.2,0.7-0.2,0.8-0.4,1.1c-0.6,0-0.9-0.3-0.9-0.9C170.9,467.9,171.4,467.9,171.9,468z"/>
			<path class="st0" d="M104,468.2c0.2,0,0.4,0,0.7,0c1.4,0.5,2.6,3,1.5,4.4C104.9,471.7,103.7,470.1,104,468.2z"/>
			<path class="st0" d="M81.3,469.7c0.1,1.5,0.3,4.6-1.8,4.6C79.1,472.7,79.1,469.6,81.3,469.7z"/>
			<path class="st0" d="M66.9,470.4c0.1,0.9-0.4,1.1-0.2,2c-0.7-0.1-1.1-0.4-1.3-0.9C65.4,470.7,66.2,469.9,66.9,470.4z"/>
			<path class="st0" d="M131.1,470.6c1.8-0.3,2.6,1.5,2.4,2.4C132.2,473.7,131.3,471.9,131.1,470.6z"/>
			<path class="st0" d="M150.8,470.6c1.2,0.8,2.7,2.4,2.4,4c-1.7-0.3-2.9-2.1-2.9-3.3C150.2,470.8,150.7,471,150.8,470.6z"/>
			<path class="st0" d="M164.2,471.5c0,0.7,0,1.3,0,2c-0.8,0.1-1.2-0.1-1.8-0.2C162.5,472.2,163.1,471.5,164.2,471.5z"/>
			<path class="st0" d="M149,475c-1.1-0.1-2.3-1.4-2-2.2C148,472.4,149.3,473.5,149,475z"/>
			<path class="st0" d="M215.2,472.6c0.6,0.1,1,0.3,1.3,0.7c0.1,1.2-1.2,1.4-2,1.1C214.7,473.7,215,473.2,215.2,472.6z"/>
			<path class="st0" d="M53,473.5c0.5,0.9,0.6,2.7,0,3.5c0.4,0.9,2.1,1.7,1.1,3.3c-1,0.1-1.7-0.2-2.4-0.4c-0.2-0.9-0.4-2-1.1-2.4
				c0.3-1.4,1.2-2,0.7-3.7C52,473.8,52.2,473.3,53,473.5z"/>
			<path class="st0" d="M61.4,474.2c-0.1,0.8-0.3,1.7-0.9,2c-0.7,0.2-0.7-0.3-1.1-0.4C59.1,474.2,60.3,473.6,61.4,474.2z"/>
			<path class="st0" d="M204.6,475.5c0.3,1-0.6,2.1-2,2c-0.2-0.5-0.6-0.8-0.4-1.5C203,475.8,203.5,475.3,204.6,475.5z"/>
			<path class="st0" d="M221.1,476.6c0.1,1.3-0.8,1.6-1.8,1.8c-0.3-0.4-0.6-0.7-0.4-1.5C219.7,476.7,220.5,476,221.1,476.6z"/>
			<path class="st0" d="M186.9,477.5c0,1.1-1.3,2-2.4,1.3C184.1,477.1,186.1,476.6,186.9,477.5z"/>
			<path class="st0" d="M210.3,477.5c-0.4,1.1-1.3,1.7-2.7,1.8c-0.2-0.8-0.1-0.6-0.2-1.5C208.3,477.2,209.7,476.8,210.3,477.5z"/>
			<path class="st0" d="M89.6,477.7c1,0.3,0.4,0.9,0.4,2c-1,0.1-1.3-0.4-2-0.7C88.4,478.4,89,478,89.6,477.7z"/>
			<path class="st0" d="M179.4,478.6c-0.5,1.1-0.9,2.3-2.7,2.2C175.9,478.6,178.2,477.6,179.4,478.6z"/>
			<path class="st0" d="M74.8,478.8c0,0.6,0,1.2,0,1.8c-1.4-0.1-2.3-0.8-2.6-2C73,478,74.2,478.6,74.8,478.8z"/>
			<path class="st0" d="M213.9,479c0.6,0,1.4-0.1,1.8,0.2c0.2,1-0.5,1.1-0.9,1.5C214.1,480.5,213.9,479.8,213.9,479z"/>
			<path class="st0" d="M149,479.7c0,2-2.8,3-3.3,0.9C146.2,479.8,147.8,479,149,479.7z"/>
			<path class="st0" d="M59.4,479.9c0.2,0.5,0.5,1,0.4,1.8c-0.9,0-1.8,0.1-2.2-0.4C57.9,480.5,58.3,479.9,59.4,479.9z"/>
			<path class="st0" d="M66.7,481.2c0.1,1-0.6,1.1-0.7,2c-1.1-0.1-1.5-1-2.2-1.5C64.2,480.6,65.7,481.1,66.7,481.2z"/>
			<path class="st0" d="M170.4,481.4c-0.1,1.1-0.7,1.7-1.5,2c-0.6-0.3-1.2-0.7-1.1-1.8C168.3,481.2,169.8,480.6,170.4,481.4z"/>
			<path class="st0" d="M226.2,481.9c-0.5,1.2-1.7,1.6-3.1,2C222.7,481.8,224.9,480.2,226.2,481.9z"/>
			<path class="st0" d="M105.3,481.9c0.1,0.5,0.3,1,0.2,1.8c-0.8,0.3-2.6,0.4-2.9-0.4C103,482.3,103.9,481.8,105.3,481.9z"/>
			<path class="st0" d="M98,484.3c-0.9,0.9-2.2-0.4-3.3-0.7C95.1,481.3,98,482.6,98,484.3z"/>
			<path class="st0" d="M180.1,483.4c0,0.3,0,0.4,0.2,0.4C179.8,487.9,176.1,482.2,180.1,483.4z"/>
			<path class="st0" d="M189.8,483.9c-0.2,1-1,1.4-1.5,2c-0.7-0.2-0.9-0.9-0.9-1.8C187.9,483.6,189.2,483.1,189.8,483.9z"/>
			<path class="st0" d="M149.9,484.5c0.7,0.1,1.8-0.2,2.2,0.2c0.1,1-0.1,1.7-0.7,2C149.9,487,149.4,485.6,149.9,484.5z"/>
			<path class="st0" d="M90.7,485.8c-0.1,0.7,0.1,1.6-0.2,2c-1,0-1.5-0.4-2.2-0.7C88.3,485.9,89.7,485.4,90.7,485.8z"/>
			<path class="st0" d="M98.9,488.9c-0.4,1.2-2.7,0.4-2.6-0.9C97.5,487.2,98.3,488,98.9,488.9z"/>
			<path class="st0" d="M183.2,488.7c-0.2,1.1-1.8,1.4-2.6,0.7C180.3,487.4,182.6,487.7,183.2,488.7z"/>
			<path class="st0" d="M201.5,301.4c2.6,5.6,10.1,3.8,17.2,3.5c8.3-0.3,18.6-1,21.6,3.3c2.3,3.3,0.1,8-1.8,10.8
				c-3.1-0.9-2.8-5.5-2.9-8.8c-1.6-0.8-6.5-0.6-8.4,0.4c3.5,2.8,14.4,9.3,7.9,14.1c-5.4-0.2-9,2.2-12.6,4.2c-7,4-13,9.4-22.7,9.7
				c-2.3-2.6,4.3-3.6,6.2-4.4c5.8-2.4,8.5-6.3,13.7-9.3c3.1-1.7,6.5-2.8,8.2-5.5c-0.7-2.8-3.1-6-6.2-5.1c1.2,1.5,3.8,1.5,4.4,3.5
				c-2.4,0.2-4.1-2.2-6.6-2.6c0.6,2.3,4.1,1.8,4.9,4c-2.4,0.6-4.3-2.3-6.4-2c0.6,1.8,3.3,1.6,4,3.3c-2,0.6-3.4-2.2-5.3-1.5
				c0.1,2,2.9,1.2,3.1,3.1c-1.6,0.6-2.6-1.2-4.2-1.3c-0.9,1.8,2.9,1.9,2.2,3.5c-1.5,0.6-2.3-2.1-4-1.3c-1,1.5,2.3,1.5,1.3,3.1
				c-1.2,0.6-1.7-1.2-2.9-1.3c-0.7,1.1,1.1,0.8,0.9,2.2c-1.2,0.9-1.9-1.5-2.9-0.2c-0.9,1.3,2,1.8,0.7,2.9c-1.4,0.2-1.4-1.9-2.6-1.1
				c-0.9,0.8,1.3,1.2,0.4,2c-0.9,0.7-1.5-0.3-2.2-0.4c-0.7,0.6,0.6,0.8,0.2,1.8c-1.3,0.3-1.3-0.8-2.4-0.7c-1.2,0.9,0.9,1.4,0.2,2.4
				c-1.5,0.4-1.2-1-2.4-0.9c-0.9,0.2,0,0.9-0.2,1.8c-1,0.2-1.1-0.4-1.8-0.4c-0.8,0-0.1,1.6-0.9,1.5c-1.5-0.2-2.4-1.1-2.6-2.6
				c4.6-3.1,14.8-8.2,14.8-14.8c0-2.7-2.1-4.6-5.3-3.8c-2.2,2.1,0.9,3.9,2.7,4.6c-0.3,3.2-3.9,8-7.5,10.1c-2.6,1.5-7.7,4-9,0.4
				c4.1-2.7,9-4.7,10.8-9.7c-0.8-1.1-2.2-1.6-2.9-2.9c-0.1-1.6,0.2-2.8,0.2-4.2c-2.9-1.1-6.2-1.7-8.2-3.8
				c-2.4-6.6,2.6-11.7,5.3-15.9c-10.5-1.7-21.4-3-32-3.8c-1.2-0.1-2.5-0.6-3.8-0.7c-2.6-0.1-5.4,0.5-8.2,0.4
				c-5.6,0-11.3-0.6-17.4-0.4c-6.7,0.2-13.4,0.1-20.1,0.4c-13.6,0.6-26.8,2.1-39.5,4.6c1.3,3.7,8.1,7.1,6.4,12.8
				c-0.9,2.8-4.6,3.8-7.1,5.5c1.5,3.5-1.6,4.6-3.3,6.2c0.5,8.4,9.1,8.7,15.4,11.3c-1,1.7-2.5,3-3.7,4.4c-7.5-0.5-14.2-5-18.3-9.9
				c-0.7-0.8-2.4-2.6-2.2-3.8c0.2-1,2.6-1.7,2.6-2.9c0-3-5-1.6-5.5,0.2c-0.9,3.4,2.2,7.3,4,9c3.7,3.7,10.3,5.1,13.5,9.3
				c-5.6,0.5-9.7-3.4-13.9-5.5c-2.2-1.1-4.4-2.2-6.6-3.3c-4.6-2.2-9.3-3.9-14.6-6c-1.6-5.1,4-6.6,6.8-8.6c-2.1-1.5-6.3-2-9.5-1.8
				c1.3,3.8,0.3,9-4.4,9.3c-0.5-3.9-2.6-8.6,0.2-11.3c7.2-6.8,29,1.8,35.3-6.6c-1.6-1.6-4-0.8-6-0.4c-5.4,1-12.3,2.9-18.3,3.3
				c-2.6,0.2-5.6-0.1-6.8-1.5c-1.1-1.2-0.8-3.3-1.3-6.2c-0.8-4.1-5-6.4-5.3-9.9c-0.4-5.4,4.7-6.7,9.7-8.2c20.4-5.8,46.1-9.5,68.2-11
				c8.4-0.6,16.7-1.1,26-0.7c9.3,0.4,21.3-0.3,32.6,0.7c2.6,0.2,5.2,0.8,7.9,1.1c16.1,1.9,34.3,5,46.8,8.6c3.9,1.1,9.5,2.8,12.1,4.4
				c2.5,1.6,3,6,1.3,9c-0.8,1.5-2.8,2.6-3.5,4.4c-0.8,2,0.1,4.1-0.7,5.7c-0.8,1.6-3.8,2.6-6.6,2.4c-4-0.3-8.9-2-13.9-2.7
				C210.4,300.9,205.7,300.5,201.5,301.4z M234.2,295.2c1.3-3.1,5.8-6.2,3.5-10.6c-1.2-2.2-7.6-3.7-11-4.6c-13-3.5-25-6.3-38-8.2
				c-20.7-3-33.4-3.1-55.2-3.1c-16.4,0-34.2,2.1-51.6,4.4c-12.5,1.6-24.9,4.1-36,7.1c-3.7,1-8.7,2.2-9.9,4.9
				c-2.4,5,3.1,6.6,4.4,10.6c0.6,1.9,0.3,4.9,0.9,6.8c2-0.4,3.5-2.1,5.5-2.9c4.3-1.7,9.6-2.8,14.8-4c5.2-1.2,10.7-2.6,15.9-3.3
				c10.9-1.5,22.3-3.6,33.5-4.4c1.7-0.1,3.5,0.3,5.3,0.2c8.3-0.2,17.1-0.9,25.8-0.7c8,0.2,15.9-0.1,23.8,0.4
				c7.7,0.5,15.5,2,23.2,3.1c3.9,0.6,7.9,0.7,11.7,1.5c11.4,2.7,22.2,4.4,32.2,7.5C233.5,298.5,233.5,296.8,234.2,295.2z
				 M204.4,294.3c-1.8-0.3-4.3-0.7-5.3,0c-2.7,1.8-5.3,5.7-6,9.7c2.2-0.8,3.3-2.5,5.3-3.3c2.7-1.1,6.3-1.2,9.5-1.1
				c3.7,0.1,8.1,0.5,11.9,1.1c4.1,0.7,8.6,3.1,11.7,0.7C224.5,298.8,213.4,295.8,204.4,294.3z M78.4,298.5c-0.7-0.9-3.8-4.4-4.9-4.2
				c-8.6,1.9-23,4.5-29.6,8.8c7.8,1,16.4-2.5,24.3-3.1c5.9-0.4,8.8,2.2,13,3.7C81.1,302,79.8,300.1,78.4,298.5z M231.1,306.2
				c-3.6-0.2-8.1-0.2-12.1,0c-5.7,0.3-12.2,1.3-16.1-0.9c-1.4-0.8-2.4-2.8-3.5-3.3c-1.4-0.7-6.1,4.1-6.2,4.9
				c-0.3,3.5,5.2,3.5,8.4,4.6c3.7-2.6,9.5-3.2,15.7-2.6c2.5,0.2,4.9,1.3,7.3,1.1c1.4-0.1,2.7-1.1,4.2-1.3c3.6-0.5,7,0,10.4,0.7
				C238.5,306.4,234.5,306.4,231.1,306.2z M63.8,307.8c-11.9,1.3-31.4-5.1-26.5,9.9c3.6,0.1,2-6,1.5-8.2c2.4-0.7,4.9-0.3,7.5,0
				c2.5,0.3,5,1.7,7.3,1.8c0.9,0,1.9-0.5,2.9-0.7c5.9-0.9,11.5-0.1,16.8,0.9c3.1-1.5,7-2.3,8.2-5.7c-2-1.4-4.2-2.6-7.1-3.1
				C71.6,304.6,68.9,307.2,63.8,307.8z M238.4,316.6c0.9-1.3,1.6-2.8,2-4.6c-0.7-0.6-1.2-1.3-2.4-1.3
				C237.6,312.1,236.8,315.8,238.4,316.6z M53.4,318.6C54.4,316.6,51.3,318.2,53.4,318.6L53.4,318.6z M56.5,322.8
				c0.3,0.3,0.8,0.3,1.1,0c0-0.4-0.2-0.6-0.4-0.7C57.2,322.5,56.5,322.3,56.5,322.8z"/>
			<path class="st0" d="M149,334.5c1.3,0,2.7,0,4,0c1.6,1.3,2.5,3.2,3.7,4.9c0.6-1.6,2.1-2.3,2-4.6c0.7-0.3,1.9-0.2,2.9-0.2
				c0.4,3.6,2.6,5.5,4.6,7.5c-2,0.9-4.1,0.9-6.2,0.2c0.9-1.4-0.1-2.3-0.9-3.3c-1.4,0.8-1.8,2.6-3.1,3.5c-2.8-0.5-3.4-3.2-4.9-5.1
				c-1.3,0.8-2,2.3-2.7,3.8c-0.1,0.8,1.3,0.2,0.9,1.3c-1.5-0.4-3.3,0.8-4-0.2c2-1.4,2.9-4,4.4-6C149.9,335.4,148.9,335.5,149,334.5z
				"/>
			<path class="st0" d="M113.7,294.5c-0.7,5.9,8.3,7.6,3.8,12.6c-1.2,0.2-0.7-1.2-1.8-1.1c-0.5,0.6,1,1.1,0.9,2
				c-0.1,1.1-1.1,1.3-1.5,2c-1,0-1-1.1-1.8-1.3c-1.1,0.7-1.8,1.8-2.4,2.9c0.7,3.8,1.8,9.3,0.2,12.4c-2.2,0-4.2-0.1-4.9-1.5
				c-0.2-2.5,0.9-5.5-0.2-7.5c-0.7-1.2-1.9-1-2.6-2.2c-0.1-2.7,1.8-3.6,1.3-6c-0.2-1.1-1.4-1.6-2-2.6c-1.5-2.6-2.3-5.9-2.7-9.3
				c1.3-1.2,3.2-0.3,4.9-0.9c1-0.3,1.7-1.8,2.6-2C109.9,291.4,111.8,293,113.7,294.5z M105.7,295.9c-1.2,0.3-2.2-0.4-3.5,0.2
				c0.2,5.9,7,9.4,3.5,15.4c0.8,1.2,1.8,1.5,2.2,3.1c0.6,2.3-1,5.9,1.3,7.1c1-2.2,0.8-4.3,0.5-6.6c-0.2-1.3-1.3-2.8-1.1-4.2
				c0.4-2.9,5.5-6,6.2-8.4c0.6-2.2-2.3-3.2-3.3-5.5c0.2-0.9,0.2-1.3,0-2.2C108.3,291.9,108,295.2,105.7,295.9z"/>
			<path class="st0" d="M117.2,309.3c0.5,1.2,1.6,3.2,0.4,4.2c2.6,0.8,1.2,6.4-1.5,5.1c-0.4-1.6-0.7-3.8,0.7-4.4
				c-0.4-0.4-0.8,0.1-1.3-0.4C114.8,311.5,115.1,309.7,117.2,309.3z"/>
			<path class="st0" d="M122.7,316.2c0.8,0.8,1,3.2,0,4c0.5-0.1,0.8-0.3,1.5-0.2c1.9,3.1,4.2,7,4.8,10.6c-1.4,0.1-2.3,0.8-4,0.7
				c-1.3-3.2-2.8-6.2-4-9.5c-0.1-1,1.2-0.6,1.3-1.3c-0.3-0.6-1,0.3-1.5,0.2C119.4,319.2,120,315.8,122.7,316.2z M126.7,329.6
				c-0.5-2.2-1.6-5.7-3.3-7.5C124.2,324.9,125,327.7,126.7,329.6z"/>
			<path class="st0" d="M115,321c0.2,1.3-0.7,1.5-0.4,2.9c-0.6,0.3-1.6,0.3-2.2,0C111.6,322.1,112.9,320.3,115,321z"/>
			<path class="st0" d="M120.1,322.3c2.1,2.7,3.2,6.3,4.6,9.7c21.4,0,40.2-0.3,60.5,0c-0.8,21.9,1.5,44.3-0.7,66.2
				c-0.7,7.5-4.7,13.8-7.5,20.1c-0.1,0.2-0.5,0.9-0.7,1.1c-1.1,1.8-2.6,3.6-4,5.5c-3.9,5.4-8.6,10.4-13.9,14.6
				c-3.3,2.6-6.6,5.7-10.8,8.2c-1.8,1-3.5,2.4-5.7,3.8c-1.9,1.1-4.8,3.1-6.2,3.1c-2.5,0.1-7.3-3.5-9.5-4.6
				c-6.3-3.4-11.7-7-16.3-11.9c-9.6-10.1-19.2-23.5-20.7-41.7c-0.5-6.2-0.7-11.8-0.7-17.4c0.1-15.3,0.6-33.1,0-46.6
				c7.5-0.9,15.9,0.6,23.8-0.7c-1.2-0.5-2.4,0.2-3.5-0.4c0.8-2.4,1.8-4.5,3.1-6.4c0.8-0.2,2-0.1,2.9,0c-0.3,2.5,0.3,5.9-1.1,7.3
				c1,0.2,1.3-0.3,2.2-0.2c-0.5-1.2-1.7-7.8,0.7-7.9c2.5-0.2,2.2,5.4,3.8,6.8c-0.1-2.1-1.8-4.5-2-7.3
				C118.7,322.9,119.3,322.5,120.1,322.3z M122.1,329.6c0-1.6-0.7-4.4-2.2-5.3C120.4,326.3,120.5,328.7,122.1,329.6z M111.5,329.6
				c0.5,0.5,0.7-0.2,1.5,0c-0.1-1.2,0-2.2,0.2-3.1c-0.3,0-0.3-0.3-0.7-0.2C112.5,327.7,111.7,328.4,111.5,329.6z M117.9,330.1
				c0.3-1.1-0.4-2.8-0.9-3.8C116.7,327.3,116.9,329.6,117.9,330.1z M167.3,333.6c-4,0.2-8.2,0.2-12.1,0.2c-21.9-0.1-43,0.2-64.9-0.4
				c-0.1,9.7,0.2,19.3,0.2,30.5c0,10.8-0.7,21.8,0,32.2c1,14.6,8.1,26.6,15.7,35.5c3.8,4.5,7.4,8.8,13,12.6c2.2,1.5,4.9,3.4,7.7,5.1
				c2.5,1.5,6.6,4,9.1,3.8c1.7-0.1,4-2.2,6-3.3c2.1-1.2,4.3-2.5,6-3.5c4.2-2.6,7.4-5.6,10.6-8.4c8.1-7.1,14.4-15.1,19-24.3
				c2.1-4.2,5.3-10.5,6-15.2c1.6-11,0.5-22.6,0.7-33.8c0.2-11.3-0.2-21.8,0-31.3C177.7,333.7,173,333.3,167.3,333.6z"/>
			<path class="st0" d="M239.2,341.8c0.5,4.9,1.7,13.5-0.7,17.4c-1.6,2.7-6.2,2.6-7.7-0.2c-1.8-3.4,0.2-8.6-0.7-11.3
				c-1.1,3,0.4,9.6-2.2,11.3c-1.6,1-4.1,0.1-4.8-2c0.1-6-0.2-9,0.7-13.9c3.8,0.9-0.2,9.4,2.4,11.9c1.9-0.2,1.3-2.6,1.3-4
				c0.1-2.8-0.7-7.5,1.8-8.4c1.1,0.7,0.6,1.8,0.7,3.3c0.9-0.3,0.1-2.4,0.7-3.1c0.9-0.3,1.4-0.6,2.4-0.2c1.5,3.9-1,11.7,1.5,14.6
				c1.3-0.1,1.9-1,2.4-1.8c0-5.2-0.2-7.7-0.2-12.4C237.5,342.5,237.8,341.6,239.2,341.8z"/>
			<path class="st0" d="M69.1,344.2c0.5,3.2-1.2,7.2,1.1,8.6c2.1-1.3,1.2-6,1.5-8.4c2.3-0.2,1,3.2,1.3,4.9c1.4-1-0.1-3.3,0.9-4.4
				c2.4,0.3-0.5,6.3,2,7.1c-0.2-0.9-1.4-4.8-0.2-6.4c1.3,0.3-0.1,2.6,0.9,3.5c0.7-1.1-0.1-2.4,0.4-3.5c1.6,0.8,1.2,8.2-0.4,9.1
				c-1.8,0.9-3.5-0.9-3.1-4c-0.5,2.8-0.7,5.6-3.5,5.3c-3.9-0.4-3-8.6-2.2-12.1C68.5,343.6,68.7,344.1,69.1,344.2z"/>
			<path class="st0" d="M238.8,361c0.2,0,0.2,0.1,0.2,0.2c1.4,3.7,1.5,8.1,1.3,12.1c-0.2,5.9-0.8,12-2.2,17.7
				c-0.7,2.8-0.9,5.6-1.5,8.2c-0.4,1.5-1.2,2.8-1.6,4.2c-1,4.2-1.5,7.7-2.6,11.7c-0.6,2.2-1.3,4.5-2,6.4c-1.4,3.9-2.8,8.6-6.4,10.4
				c0.6-5.4,2.7-10.7,3.5-16.6c0.8-5.8,1.1-11.9,1.8-17.7c1.3-11.6,2.4-23.6,1.3-35.5c1.4-0.4,2.6,1,3.3,2
				c-0.2,10.1-0.4,19.9-1.1,29.1c-0.3,3.7-2.7,7.4-2,11.3c1.2-1,0.8-2.8,1.1-4.2c0.5-2.6,1.6-5.1,2.2-7.7c0.6-2.8,0.5-5.5,0.7-8.6
				c0.4-7,1.1-13.9,0-20.3C236.3,362.9,237.2,361.6,238.8,361z"/>
			<path class="st0" d="M171.3,408.6c-0.3,3.8,3.2,5.2,3.8,8.8c-2.4,1.8-9-0.6-10.1,2.4c1.6,1.2,3.2,3.5,5.5,3.3
				c-0.5,1.5-1.5,2.4-2.6,3.8c-0.8,1-2.1,3.1-3.3,3.1c-1.1,0-1.8-1.5-2.4-1.8c-1.4-0.7-2.9,0-3.1-2c-0.1-0.8,0.8-2.5,1.3-3.3
				c1-1.4,2.7-3.1,4-4.9c1.4-1.8,2.5-4,4-4.6c0.4,0.2,0.6,0.6,0.4,1.3c1-0.2,1.1-1.2,1.5-2c-0.6-0.7-1.1,0.8-1.8,0
				C168.2,411.1,169.3,408.9,171.3,408.6z M171.7,415.2c0-0.3,0-0.6,0-0.9c-0.2,0-0.4,0-0.7,0C171,414.9,171.1,415.3,171.7,415.2z
				 M161.4,424.7c0.3,0.2,0.4,0.6,0.7,0.9c1.5,0,2.2-0.9,2.4-2.2C163.3,421.6,161.6,422.9,161.4,424.7z M164.2,426.7
				c0.6,0.3,0.7,0.9,1.5,0.9c0.6-0.7,1.4-1.1,1.5-2.2C166.3,423.6,164.5,425.2,164.2,426.7z"/>
			<path class="st0" d="M195.3,438.4c-2,0.7-5.2,1.9-6.8,0.2c-1.8-1.8-1.2-5.4-2.2-7.9c0.4-0.3,1.5-1.1,2.2-0.4
				c1.4,1.4,0.8,4.8,2.6,5.7c0.6,0.2,0.6-0.3,1.1-0.2c1.6-1.6-0.2-4.9,0.4-6.8C195.9,427.3,196.7,436.4,195.3,438.4z"/>
			<path class="st0" d="M243.4,429.4c0,0.4,0,0.7,0,1.1c-0.4,0.5-1.8,0-2.2,0.4c-2.1,1.4,0.7,2.7,0.9,4c0.3,2.2-1.7,2.5-3.1,4
				c3.5,6.1-1.1,11.5-6,13.9c-4.6,2.3-10.6,1.5-15.2,1.8c-1.3,1.5-1.8,3.7-3.1,5.3c-5,6.1-14.6,4.6-19.4,11c1,3.7,6.1,1.6,9.7,0.7
				c3.9-1,8.4-2.5,12.6-2.4c3.6,0.1,6,2.2,9.5,1.5c1,3.1,2.7,5.4,4.8,7.3c-0.6,2.8-1.3,5.3-2,7.9c-1.8,0-2.3,1.3-3.1,2.2
				c-2-0.2-5.5-0.3-6.8,1.3c-1.1-1.4-4.5-1.9-6.2-0.7c-1.4-0.5-1.7-2.1-3.3-2.4c-0.9,0.2-1.3,0.9-2.6,0.7c-0.6-0.7,0.1-1.6-0.2-2.2
				c-0.7-0.9-2.2-1.7-3.7-1.1c-1-1-2.5-2.1-3.8-1.8c-1.8,0.4-3.2,6.6-4.4,7.5c-0.5,0.2-1.3,0.1-1.8,0.4c-5.4,3.6-10.6,4.4-17.9,3.1
				c-3.6-0.7-6.8-2.7-9.9-3.1c-1.7-0.2-4.2-0.6-5.5-0.2c-1.4,0.4-1.2,1.7-2.2,2.9c-1.1,1.4-3.3,2-4.4,3.3c1,1.8,2.9,2.7,5.7,2.7
				c-2.2,4.6-9.8,1.1-12.8-0.7c-0.4,0.9,0.7,1.8,1.3,2.4c-6.8,2.5-6.3-7.2-12.1-6.4c0.3,1.6,1.7,2.1,2.2,3.5
				c-5.1,0.3-7.2-1.5-11.5-2.9c-0.5-0.6-1-1.2-1.3-2c-1.2,2-2.2,5-2,7.7c-2.9,0.4-3.3-1.7-4.4-3.1c-2.7,2.6-8.4-0.4-9.1,4
				c-4.9-5.5,7.9-7.9,3.1-12.6c-2.8,1-5.1,2.4-6.8,4.4c-2-0.5-3.8,0.6-5.7,0.9c-0.8,0.3-0.3,1.7-1.5,1.5c-0.9,0.2-0.7-0.6-0.9-1.1
				c-3.6,0.1-4.8-0.7-6.8,0.9c-2-1.9-5-2.8-7.7-4c-0.6-1.9-1.2-3.7-2.2-5.1c-2.7-0.9-6.7-0.3-8.6,0.9c-0.3,0.5,0,1.6-0.7,1.8
				c-2.2-1.3-7.7-1.5-9.5,0.4c-1.8-1.7-7-2.3-9.5-1.3c-1.2-0.9-1.3-3-2.9-2.6c-1.7,0.3-0.8,3.2-2.4,4.2c-2.2-0.2-4.3-1.7-5.3,0.4
				c-0.4,1.2,1.1,1.2,0.4,2c-1.6,1.3-3-1.8-3.3-2.4c0.7-1,2.8-0.3,3.1-2.2c0.1-1.3-1.3-1.2-1.5-2.2c-0.6-3.5,8.6-4.9,2.4-6.8
				c0.4-1.7,1.7-2.6,1.8-4.6c0.2-1-0.9-0.7-0.7-1.8c1.7-1.3,4.1-2,6-3.3c-0.8-2.6-2.6-4.6-6-4c-0.7-2.2-2.1-3.8-5.1-3.8
				c-0.9-2.5-1.9-4.8-4.4-5.7c0.3-1.9,0.5-5.4-1.1-7.1c0.8-1.1,2.4-1.4,2.4-3.3c-0.6-2.2-3.7-1.9-4.2-4.2c0.7-1.1,1.4-2.1,2.2-3.1
				c-0.1-1.2-1.3-1.4-2-2c0.6-1.5,2.5-2.9,4.2-2c0.2,1.2-0.8,1.1-0.7,2.2c0.3,1.4,2.6,0.8,4.2,0.9c1,1.2,0.7,2.4,0.9,4.2
				c1.6,0.7,2.8,0.4,4.4,0.9c-0.5-2.9,1-4.6,3.5-6c2.3-1.3,3.3-4,6.2-2.4c0.5,1.5-0.1,1.9,0,3.5c3.6,0.5,8.8-6.4,11.9-2.9
				c0.9,1,0.8,3.2-0.9,3.8c-1.2-0.1-0.9-1.6-1.5-2.2c-4.2,0.1,1.1,2.3,0.2,5.5c2.3,2.9,4.5,6,6.6,9c1.8-1.3,3.7-2.5,5.5-3.8
				c0.4-2.7,2.8-3.3,4-5.1c2.9-0.1,4,1.6,4.6,3.8c5.1,1.1,6.6,5.8,9.9,8.6c2.7-1.6,2-4.6,4.6-5.3c1-0.3,2.1,0.2,3.3,0
				c0.9-0.1,1.9-1,3.1-1.1c6.9-0.7,10.3,3.9,12.6,8.2c5.5,3.3,12.9,7.8,19.9,7.7c3.5-0.1,6.1-5,11-2.9c3.4,1.5,5.2,6.2,10.2,4.9
				c0.5-0.9-0.4-1.2,0-2c3.6-5.6,6.1-11.8,14.6-11.7c1.5,0,2.4-2,3.3-3.1c0.1-0.9-0.4-1,0-1.8c1.7-0.4,3-1.1,4.2-2
				c1.9,1.1,3.7,2.3,5.3,3.8c-0.5,2-1.8,3.2-1.5,6c-0.9,0.5-2.3,0.4-3.3,1.3c-0.2,3.5-1.1,6.6-0.9,9.9c-3.2,0.6-3.7,3.8-5.3,6
				c-3.8,2.7-10.1,2.8-12.1,7.3c1.4,0.9,4.1-0.3,4.9-1.5c2.7,1,4.8-1.6,6.4-3.1c0.7,0,1,0.5,1.8,0.4c1.1-0.3,1.3-1.5,2.4-1.8
				c2.8,0.8,3.6-1.4,5.9-1.1c1.9-2.3,0.8-5.8,1.5-8.6c0.6-2.3,2.8-4.1,2.2-6.4c1.9-1.9,3.6-3.9,4.9-6.4c1.3-0.5,2.6-1.1,3.5-2
				c5.5-1.9,12.4-4.3,16.8,0.2c4.3,0.4,5.8-2,7.7-4c-0.7-2-3.7-0.4-4.2-2.4c-0.3-1.3,0.8-1.9,1.1-3.3c-0.1-1.2-1.4-1.3-2.4-1.5
				c0.1-1.5,1.1-2,2.2-2.4c0.3,1,0.4,2.3,1.3,2.6c1.9-0.1,3.2-1,4.9-0.2c0.1,1,0.8,1.6,0.9,2.6c2.8-1,4.2-3.3,7.5-3.7
				c-0.1-2.3,0-4.3,1.3-5.1c1.4-0.1,2.2,0.3,2.9,0.9c0.6-0.2,1.3-0.5,1.5-1.1c0.2-1.6-1.9-2-0.7-3.3
				C240.6,427.9,241.8,428.9,243.4,429.4z M235.9,433.1c-0.6,1.1,0.2,2.4,0.2,3.5c1.5,0.7,3.9,0.4,4.4-1.1
				C239.5,434.2,238.2,433.2,235.9,433.1z M48.8,442.4c4.1,0.8,6.8-2.6,11.7-2.4c1.8,0.7,1.6,4.3,0.4,5.5c0.5,0.4,1.1,0.8,1.8,0.4
				c-0.3-2.3,1.3-4.3,0.7-6.8c-1.5-2.4-6.7-1.6-9,0.2c-1.2,1-1.8,3.6-3.5,1.5c0.3-0.6,0.9-1,1.1-1.8c-0.2-0.6-1-0.6-0.9-1.5
				c0.4-0.7,1.7-0.3,1.8-1.3c0-0.2-0.2-0.3-0.4-0.4C50.4,437.1,46.1,439.1,48.8,442.4z M35.1,440.4c1,0.8,2,2.3,3.7,1.8
				c0.6-0.6,0.4-1.9,0.4-3.1C38.1,438.2,35.6,439,35.1,440.4z M225.3,441.9c-0.1-3.9-3.9-4.1-4.9-0.7c1.6,0.3,2.7,1.1,4.4,1.3
				C225,442.3,225.1,442.1,225.3,441.9z M217.8,450.1c-1.7,0.4-4.4-1.1-4.6,2c2,1.2,4.8,0.7,7.5,0.7c9.1-0.2,18.8-2.6,17.9-11.7
				C230.3,432.9,225,448.4,217.8,450.1z M50.6,444.1c-0.4,3.1,4,3,4,6.4c2.4-1.8,3.2-5.2,5.7-6.8c0-0.5,0-1,0-1.5
				C56.8,441,54.3,444.1,50.6,444.1z M53.7,454.3c-1.6-3.3-4.3-8.3-6.2-9.7c-4.7-3.6-9.9-0.8-9.9,4.6c-0.1,11.2,14.3,11.7,16.3,20.1
				c-4.4,1-9.1,5.9-6,11c1.3,2.1,5.4,4.5,7.3,5.1c1.8,0.5,5.2,0.5,7.9,0.7c6.7,0.4,11.8-2.3,17.7-2.2c0.2-1.6,0.2-3.3,0.9-4.9
				c-5.5-1.1-8-5.3-10.8-9c-2.7-0.5-7.6-2.7-10.6-0.9c-1,0.6-0.8,1.8-2.2,2C58.8,464.4,56.9,460.9,53.7,454.3z M107.7,461.8
				c-1.7-1.5-2.4-2.9-4.2-3.5c-1.5-0.5-3.2,0.1-5.1-0.2c-2.6-0.4-2.3-1.8-3.5-3.5c-0.7-1-2.2-2-3.1-3.3c-0.2-0.4-0.2-0.8-0.4-1.1
				c-2.1-2.8-6.3-2.9-7.3-6.6c-0.7-0.4-1.2-0.9-2.4-0.7c-5.4,8.5-14.9,12.9-22.3,19.4c0.3,1.6,0.6,3.3,1.1,4.6
				c3.1,0.6,2.6-4.5,5.3-2.9c-0.2,0.8-0.8,1.1-0.9,2c1,0.7,2.4,0.8,3.7,1.1c0.8-0.4,0.6-1.8,1.8-1.8c1.2,0.4,0.3,1.5,0.4,2.6
				c2.5,1.8,2.6,1.8,4.6,0c0.3,0.1,0.5,0.3,0.7,0.7c-0.4,1.1-0.9,2.2-1.1,3.5c1.5,2.5,4,4,7.3,4.6c1.1-1.5,2.4-2.9,4.6-3.3
				c-1.3-0.7-2.1-3.9,0.2-4.2c0.4,0.8,0.4,2.9,0,3.8c1.7-0.7,4.5-0.4,6-1.3c0.1-1-0.1-2.3,0.9-2.4c0.6,0.4,0.6,1.4,0.9,2.2
				c0.9,0.1,2.5,0.3,3.7,0.7c0.6-1.2-1.3-2.8,0.4-3.5c1.5,0.9,1.9,3,2.6,4.6c1.9,0.4,3,1.6,5.1,1.8c0.8-4.3,3.1-8.5,8.6-8.8
				C113.6,464,110.4,463.1,107.7,461.8z M64.5,445.9c-0.9,1.4-2.8,1.4-4.6,0.9c-1.8,1.7-2.8,4.2-4.2,6.2c0.5,0.6,1.5,0.7,1.5,1.8
				c-0.8,1.7,0.2,4.2,1.6,5.1c3-2.2,6.3-4.2,9.3-6.2c0.9-0.6,2.6-1.4,2.4-2.9c-3-1.3-2.9-5.7-6.2-6.6
				C64.2,444.9,64.6,445.1,64.5,445.9z M185,448.1c-1.5-2.8-6.7-0.1-6.2,3.5c0.1,0.7,1.4,0.4,1.3,1.3c-1.3,0.6-1.9,1.2-3.3,2
				c-0.8-0.2-0.2-1.7-0.9-2c-0.9-0.3-2.4-0.2-4.4-0.2c-6.4,3.9-9.8,11.8-11.3,19.9c-0.1,1.7-3.2,3.4-3.1,5.3
				c0.1,1.3,2.1,3.2,4.2,2.2c1.2-1.8,2.2-4.2,4.2-5.7c1.9-1.5,4.5-1.6,6.6-2.9c4.2-2.5,9.2-8,8.8-13.9c-0.4-0.6-1.5-0.5-1.8-1.1
				C181,454.6,187.1,452.2,185,448.1z M196.4,451.6c-5,3.9-7.2,11.5-7.3,18.8c2,0.1,3.5,1.5,4.9,0.9c0.7-0.7-0.7-0.6-0.7-1.3
				c1.9-2,4-4.9,7.3-4.9c4.6-3.6,13.1-3.4,14.3-10.4c-1.2-0.1-2.3-0.3-2.6-1.1c-0.5-1.5,0.3-3.4,0-5.1
				C206.7,446.5,200.1,448.8,196.4,451.6z M121.4,458.7c-2.9-1.7-4.7-4.1-6.6-6.4c-0.7-0.9-1.1-2-1.8-2.4c-3.6-2.4-8.3,0.8-12.1,0
				c-1.4,1.5-2.9,4-3.3,5.7c0.6,1,2.6,0.1,3.7,0.2c0.4-0.8,0-2.3,1.3-2.2c1,1.5,1,4,3.7,3.8c0.4-0.9-0.8-3.8,1.1-3.8
				c0.5,1.6,0.7,3.7,0.4,5.5c10,6.8,22.8,10.9,28.9,21.6c6-1.2,10.7-7.3,18.1-3.8c2.3-2.1,3.9-4.9,4.2-9c-2.3-0.5-3.4-1.8-5.1-3.1
				c-1.4-1.1-4.2-3.4-6.2-3.3c-1.2,0.1-2.9,1.6-4.9,2.2c-1.8,0.6-3.9,1-6,1.1c-3.5,0.2-4.3-1.6-7.1-1.5c-0.6,0.7,1.2,1.6,0.4,2.4
				c-1.7-0.3-2.9-1.8-2.4-3.5C125.9,460.4,123.5,459.9,121.4,458.7z M128.3,493.1c2.9,0,4.7-3,4.9-6c1.8,0,5.5,1.1,6-0.9
				c-0.6-0.4-1.9-0.1-2.9-0.2c-3.3-2.4-4.2-7-10.2-7.1c-4,0-8,1.5-11.7,0c-2.7-1.2-4-5.1-2.4-7.9c1.2-0.6,2.3-1.4,4.4-1.1
				c1.2,0.5,1.2,2,2.4,2.4c1.1-3.7-2.7-5-5.3-4.2c-4.1,1.2-5.1,7.3-3.7,11.5c1.5,4.5,6.5,6.9,7.1,9.9c0.7,3.9-3.2,4.6-4,6.8
				c3.2,1.3,6.2-0.8,6.6-3.7c0.2-1.4-0.9-3.3,0.4-4.2c3.4,1.5-0.5,7.4,2.2,9.5c0.3-3,2-5.2,1.5-8.2c-0.7-4.5-6.4-4.3-9.7-6.6
				c-2.2-1.6-3.2-3.7-3.3-6.6c2,4.8,6.3,6.1,11,7.9c3,1.1,4.5,3.4,6.8,5.1c2-3.1-1.4-6.1-3.5-6.8c-2.3-0.8-5.3,0.9-6.4-1.1
				c7.3-4.9,18.2,6.2,9.3,10.2c0-0.1-0.2-0.3-0.2,0C128.1,492,127.2,493.1,128.3,493.1z M116.3,474.6c-0.1-4.3-4.6-2.3-2.4,1.8
				c2.9,2.2,7.3,1.1,11.3,0.9c3-0.2,5,0.6,7.3,1.5c-2.9-4.1-6.6-7.3-11.5-9.5C122.4,473.2,119.4,475.8,116.3,474.6z M200.4,479.9
				c6,0.9,11.2,6.3,18.1,6.6c2.5,0.1,6.1,0.3,8.6-1.5c4.5-3.3,1.4-10.7-2.4-12.6c-4-2-10.7-1.4-15-0.2c-1.9,0.5-3.7,1.7-5.7,2.2
				c-3.6,0.9-10.1,0-9.5,4.4C196.1,480.4,198,479.5,200.4,479.9z M176.1,477.7c-2.3,1-5,2.5-7.5,3.1c-5.3,1.3-11.3,0.5-10.2,6.6
				c2.6,0.8,6,0.8,8.6,0.7c0.8-0.4,0.4-2,1.3-2.2c0.8,0,1.5-0.1,1.8,0.4c0.6,0.9-1.4,0.9-1.3,2c8.5,5.4,26,4.2,28.5-6.2
				c-0.8-0.8-3-0.4-3.7-1.3c-1-2.5-0.5-5.1,0.7-7.1C188.7,471.6,181.7,475.2,176.1,477.7z M91.2,474.2c-4.7,0.4-8.5,3.3-8.4,8.4
				c0.1,6.4,7.1,10.3,13,10.2c3.5-0.1,9.4-1.9,12.1-3.3c1.1-0.6,3.4-2.3,3.5-3.1c0.2-1.6-2.6-3.7-3.3-5.7c-0.3-0.9-0.1-2-0.7-3.1
				C102.7,475.8,96.9,473.7,91.2,474.2z M146.6,490.3c1.8,0.3,2.7,3,4.9,3.3c2.6,0.4,5.8-1.9,6-4c0.1-1.3-0.9-2.3-0.7-3.8
				c0.2-0.9,0.9-1.6,1.1-2.4c0.6-3.1-4.1-5.2-6.8-5.5c-5.8-0.6-8.8,4.8-13.9,5.7c0.4,1.6,3.4,0.6,4.2,1.8c0.2,1.3-0.7,1.5-0.4,2.9
				c2.3,0.6,2.7,0.1,4.6-0.4C146.3,488.1,146.6,489,146.6,490.3z M43.7,483.4c0.2,2,2,2.4,3.5,3.1c1.4-0.5,1-3.8,0-4.4
				C45.7,482.2,44.7,482.7,43.7,483.4z M135.1,489.2c-0.5,0.6-1.1,1.8-0.7,2.6c0.5,0.5,1.4-0.1,2-0.2c2,0.7,3.7,0.9,5.1,2.2
				c1.3,1.2,1.5,3.6,3.5,4.2c0.6-1.1-0.8-2.9-0.7-3.5c3.8,0.3,5.3,4.1,9.1,3.8C148.2,494.3,143.9,488.8,135.1,489.2z M130.9,494.2
				c0.9,0.7,2.7,1.6,4,1.3C135,493.7,131.6,491.9,130.9,494.2z"/>
		</g>
		<g>
			<polygon class="st0" points="-21.1,539.1 -47.1,213 -62,224.1 -45,542.4 			"/>
			<path class="st0" d="M-54,542.4c0,0-12.7-223.8-11.7-347.1L-79,207.7l2.7,338.6L-54,542.4z"/>
			<polygon class="st0" points="-84.3,248.4 -90.1,248.4 -87.2,542.4 -81.1,536.5 			"/>
			<polygon class="st0" points="-95.5,200.5 -105.5,190 -111.3,553.6 -95.5,542.4 			"/>
			<polygon class="st0" points="-111.3,248.4 -115,248.4 -123,542.4 -117.2,539.1 			"/>
			<polygon class="st0" points="-120.3,213 -134.1,203.1 -158.5,549 -133.6,546.3 			"/>
			<polygon class="st0" points="-142.6,228.1 -149,234 -176,546.3 -168.1,542.4 			"/>
			<polyline class="st0" points="-111.6,579.7 -210.1,558.8 -210.1,549 -111.6,571.3 			"/>
			<polyline class="st0" points="-112.4,579.7 15.2,560.4 15.2,550.5 -112.4,571.3 			"/>
		</g>
		<g>
			<path class="st0" d="M-11.9,287.7H17v9.1H-0.9v8.9H17v8.9H-0.9v22h-11L-11.9,287.7L-11.9,287.7z"/>
			<path class="st0" d="M-12,346.2h31.8v9.1H-1v8.8h20.8v8.9H-1V386h20.8v9.1H-12V346.2z"/>
			<path class="st0" d="M18.5,411.4l-8.2,6.1c-2.9-3.4-5.8-5.1-8.8-5.1c-1.5,0-2.6,0.3-3.6,1c-0.9,0.7-1.4,1.4-1.4,2.2
				s0.3,1.6,1,2.3c0.9,1,3.6,3.1,8.1,6.3c4.2,3,6.8,4.8,7.7,5.6c2.2,1.9,3.8,3.7,4.8,5.5c0.9,1.7,1.4,3.6,1.4,5.7c0,4-1.7,7.3-5,9.9
				c-3.3,2.6-7.6,3.9-12.9,3.9c-4.1,0-7.8-0.9-10.8-2.6c-3.1-1.7-5.7-4.4-7.9-8l9.3-4.7c2.8,4.3,6,6.5,9.7,6.5
				c1.9,0,3.5-0.5,4.8-1.4c1.3-0.9,1.9-2,1.9-3.2c0-1.1-0.5-2.2-1.5-3.3c-1-1.1-3.1-2.8-6.5-5.1c-6.3-4.3-10.4-7.7-12.3-10.1
				c-1.9-2.4-2.8-4.7-2.8-7.1c0-3.4,1.5-6.3,4.6-8.7c3.1-2.4,6.9-3.6,11.4-3.6c2.9,0,5.7,0.6,8.3,1.7
				C12.6,406.3,15.5,408.4,18.5,411.4z"/>
		</g>
		<g>
			<path class="st0" d="M36.5,210.5h9.4v31.9c0,2.7,0.2,4.7,0.7,5.8c0.5,1.1,1.3,2.1,2.4,2.7c1.1,0.7,2.4,1,4,1
				c1.7,0,3.1-0.4,4.3-1.1c1.2-0.8,2-1.7,2.5-2.9c0.5-1.2,0.7-3.4,0.7-6.7v-30.7h9.4v29.4c0,5-0.3,8.4-0.8,10.3
				c-0.6,1.9-1.6,3.8-3.2,5.6c-1.6,1.8-3.4,3.1-5.4,4c-2.1,0.9-4.4,1.3-7.2,1.3c-3.6,0-6.7-0.8-9.3-2.5c-2.6-1.6-4.5-3.7-5.7-6.2
				c-1.1-2.5-1.7-6.6-1.7-12.5L36.5,210.5L36.5,210.5z"/>
			<path class="st0" d="M80.8,210.5h9l21.1,32.5v-32.5h9.4v49.3h-9l-21.1-32.4v32.4h-9.4V210.5z"/>
			<path class="st0" d="M146.6,210.5h9.5l19,49.3h-9.8l-3.9-10.2h-20.1l-4,10.2h-9.8L146.6,210.5z M151.5,223.5l-6.6,16.9H158
				L151.5,223.5z"/>
			<path class="st0" d="M187.2,210.5h9.1l11.4,34.4l11.5-34.4h9.1l8.3,49.3h-9.1l-5.3-31.1l-10.5,31.1h-8.3l-10.4-31.1l-5.4,31.1
				h-9.2L187.2,210.5z"/>
		</g>
	</g>
	<g>
		<path class="st0" d="M260.5,647h-487.6c-10.9,0-19.8-8.9-19.8-19.8V142.5c0-10.9,8.9-19.8,19.8-19.8h487.6
			c10.9,0,19.8,8.9,19.8,19.8v484.6C280.3,638.1,271.4,647,260.5,647z M-227.2,134c-4.7,0-8.5,3.8-8.5,8.5v484.6
			c0,4.7,3.8,8.5,8.5,8.5h487.6c4.7,0,8.5-3.8,8.5-8.5V142.5c0-4.7-3.8-8.5-8.5-8.5C260.5,134-227.2,134-227.2,134z"/>
	</g>
</g>
</svg>
