<?xml version="1.0" encoding="utf-8"?>
<!-- Generator: Adobe Illustrator 19.0.0, SVG Export Plug-In . SVG Version: 6.00 Build 0)  -->
<svg version="1.1" id="Capa_1" xmlns="http://www.w3.org/2000/svg" xmlns:xlink="http://www.w3.org/1999/xlink" x="0px" y="0px"
	 viewBox="-319 129 384 512" style="enable-background:new -319 129 384 512;" xml:space="preserve">
<style type="text/css">
	.st0{fill:#B6985E;}
</style>
<path class="st0" d="M17,193h-80c0-35.3-28.7-64-64-64s-64,28.7-64,64h-80c-26.5,0-48,21.5-48,48v352c0,26.5,21.5,48,48,48H17
	c26.5,0,48-21.5,48-48V241C65,214.5,43.5,193,17,193z M-223,553c-13.3,0-24-10.7-24-24s10.7-24,24-24s24,10.7,24,24
	S-209.7,553-223,553z M-223,457c-13.3,0-24-10.7-24-24s10.7-24,24-24s24,10.7,24,24S-209.7,457-223,457z M-223,361
	c-13.3,0-24-10.7-24-24s10.7-24,24-24s24,10.7,24,24S-209.7,361-223,361z M-127,169c13.3,0,24,10.7,24,24s-10.7,24-24,24
	s-24-10.7-24-24S-140.3,169-127,169z M1,537c0,4.4-3.6,8-8,8h-144c-4.4,0-8-3.6-8-8v-16c0-4.4,3.6-8,8-8H-7c4.4,0,8,3.6,8,8V537z
	 M1,441c0,4.4-3.6,8-8,8h-144c-4.4,0-8-3.6-8-8v-16c0-4.4,3.6-8,8-8H-7c4.4,0,8,3.6,8,8V441z M1,345c0,4.4-3.6,8-8,8h-144
	c-4.4,0-8-3.6-8-8v-16c0-4.4,3.6-8,8-8H-7c4.4,0,8,3.6,8,8V345z"/>
</svg>
