<?xml version="1.0" encoding="iso-8859-1"?>
<!-- Generator: Adobe Illustrator 19.0.0, SVG Export Plug-In . SVG Version: 6.00 Build 0)  -->
<svg xmlns="http://www.w3.org/2000/svg" xmlns:xlink="http://www.w3.org/1999/xlink" version="1.1" id="Capa_1" x="0px" y="0px" viewBox="0 0 511.826 511.826" style="enable-background:new 0 0 511.826 511.826;" xml:space="preserve" width="512" height="512">
<g>
	<g>
		<g>
			<path style="fill:#EBEEF2;" d="M120.598,205.5H71.84c-33.494,0-60.647,27.153-60.647,60.647v63.371h170.052v-63.371     C181.245,232.653,154.093,205.5,120.598,205.5z"/>
			<path style="fill:#D1D6DE;" d="M120.598,205.5h-23.55c33.494,0,60.647,27.153,60.647,60.647v63.372h23.55v-63.372     C181.245,232.653,154.093,205.5,120.598,205.5z"/>
			<polygon style="fill:#ED5575;" points="103.46,205.5 88.978,205.5 68.96,273.542 96.219,301.461 123.478,273.542    "/>
			<g>
				<path style="fill:#F9C295;" d="M96.219,7.327L96.219,7.327c-38.234,0-69.23,30.995-69.23,69.23v33.377      c0,38.235,30.996,69.23,69.23,69.23l0,0c38.234,0,69.23-30.995,69.23-69.23V76.556C165.449,38.322,134.454,7.327,96.219,7.327z"/>
				<path style="fill:#E59F6A;" d="M96.219,7.326c-4.191,0-8.289,0.394-12.275,1.107c32.375,5.797,56.955,34.08,56.955,68.123      v33.377c0,34.043-24.58,62.326-56.955,68.123c3.986,0.714,8.084,1.107,12.275,1.107c38.235,0,69.23-30.995,69.23-69.23V76.556      C165.449,38.322,134.454,7.326,96.219,7.326z"/>
				<path style="fill:#444966;" d="M141.22,24.067c-1.137-0.978-2.309-1.919-3.514-2.818C104.437-3.576,55.568,7.013,35.563,43.238      c-6.638,12.019-9.642,26.014-8.523,39.699c15.759,6.959,33.727,8.811,50.574,5.211s32.489-12.631,44.029-25.423      c9.535,14.634,25.754,24.716,43.097,26.79C168.979,65.625,159.574,39.858,141.22,24.067z"/>
				<path style="fill:#2E344C;" d="M165.043,69.096c-0.049-0.457-0.115-0.908-0.173-1.361c-0.098-0.771-0.199-1.541-0.323-2.303      c-0.075-0.461-0.162-0.918-0.246-1.377c-0.137-0.751-0.281-1.5-0.442-2.242c-0.096-0.444-0.201-0.886-0.306-1.327      c-0.18-0.756-0.37-1.509-0.575-2.255c-0.112-0.409-0.228-0.816-0.347-1.222c-0.23-0.784-0.475-1.561-0.732-2.332      c-0.118-0.355-0.236-0.711-0.36-1.064c-0.296-0.84-0.61-1.672-0.937-2.498c-0.107-0.271-0.21-0.543-0.32-0.812      c-0.395-0.962-0.812-1.912-1.249-2.852c-0.058-0.124-0.111-0.25-0.169-0.373c-4.195-8.887-10.225-16.737-17.603-23.063      c0-0.003,0.001-0.005,0.002-0.008c-0.001-0.001-0.002-0.002-0.003-0.002c-0.127-0.109-0.26-0.21-0.387-0.318      c-0.531-0.448-1.066-0.891-1.61-1.323c-0.248-0.197-0.498-0.391-0.749-0.584c-0.498-0.385-1.001-0.764-1.51-1.136      c-0.297-0.217-0.595-0.432-0.896-0.644c-0.467-0.33-0.937-0.652-1.412-0.97c-0.349-0.234-0.698-0.467-1.051-0.694      c-0.426-0.274-0.857-0.541-1.289-0.806c-0.409-0.251-0.817-0.502-1.231-0.746c-0.365-0.213-0.736-0.419-1.106-0.626      c-0.487-0.273-0.973-0.548-1.468-0.81c-0.254-0.135-0.514-0.261-0.77-0.393c-2.94-1.512-6.001-2.819-9.165-3.905      c-0.052-0.018-0.104-0.035-0.156-0.053c-1.07-0.364-2.153-0.699-3.245-1.011c-0.252-0.072-0.503-0.146-0.756-0.215      c-0.538-0.147-1.078-0.29-1.621-0.424c-0.725-0.179-1.454-0.349-2.188-0.505c-0.411-0.088-0.825-0.166-1.239-0.247      c-0.674-0.13-1.35-0.252-2.03-0.362c-0.339-0.055-0.678-0.111-1.019-0.162c-0.859-0.126-1.724-0.235-2.593-0.33      c-0.265-0.029-0.53-0.059-0.796-0.084c-0.976-0.095-1.957-0.17-2.945-0.224c-0.208-0.011-0.416-0.019-0.625-0.028      c-1.057-0.048-2.118-0.081-3.187-0.081c-1.097,0-2.187,0.032-3.272,0.083c-0.708,0.034-1.41,0.09-2.112,0.146      C90.507,7.58,90.178,7.6,89.851,7.63c-0.914,0.086-1.823,0.19-2.726,0.311c-0.082,0.011-0.164,0.02-0.246,0.031      c-0.983,0.135-1.961,0.288-2.932,0.462c-0.001,0-0.002,0-0.004,0c32.375,5.797,56.955,34.08,56.955,68.123v4.757      c7.306,4.435,15.629,7.36,24.55,8.311V76.556c0-1.259-0.038-2.51-0.104-3.752c-0.021-0.397-0.062-0.79-0.09-1.185      C165.195,70.775,165.133,69.931,165.043,69.096z"/>
			</g>
		</g>
		<circle style="fill:#F2DF33;" cx="249.245" cy="124.17" r="23.55"/>
		<circle style="fill:#48CFB7;" cx="72.669" cy="389.257" r="23.55"/>
	</g>
	<g>
		<path d="M239.283,328.913c0.016,0,0.03,0,0.045,0c6.514,0,12.638-2.533,17.249-7.136c4.622-4.614,7.167-10.751,7.167-17.282    v-44.263v-6.704v-5.078c0-13.448-10.94-24.389-24.389-24.389s-24.389,10.94-24.389,24.389v11.782    c0,13.448,10.94,24.389,24.389,24.389c3.326,0,6.497-0.671,9.389-1.882v21.756c0,2.52-0.981,4.887-2.765,6.666    c-1.778,1.775-4.14,2.752-6.653,2.752c-0.005,0-0.011,0-0.017,0c-5.184-0.009-9.401-4.233-9.401-9.418v-2.424    c0-4.143-3.357-7.5-7.5-7.5s-7.5,3.357-7.5,7.5v2.424C214.908,317.937,225.844,328.891,239.283,328.913z M239.356,269.621    c-5.177,0-9.389-4.212-9.389-9.389V248.45c0-5.177,4.212-9.389,9.389-9.389s9.389,4.212,9.389,9.389v5.078v6.704    C248.744,265.409,244.532,269.621,239.356,269.621z"/>
		<path d="M303.345,294.572c-4.143,0-7.5,3.357-7.5,7.5v2.424c0,13.441,10.936,24.396,24.375,24.418c0.016,0,0.03,0,0.045,0    c6.514,0,12.639-2.533,17.25-7.137c4.622-4.613,7.167-10.751,7.167-17.281v-44.263v-6.704v-5.078    c0-13.448-10.941-24.389-24.39-24.389s-24.389,10.94-24.389,24.389v11.782c0,13.448,10.94,24.389,24.389,24.389    c3.326,0,6.498-0.671,9.39-1.882v21.756c0,2.519-0.981,4.886-2.765,6.665c-1.778,1.775-4.141,2.753-6.654,2.753    c-0.005,0-0.011,0-0.017,0c-5.184-0.009-9.401-4.233-9.401-9.418v-2.424C310.845,297.929,307.487,294.572,303.345,294.572z     M320.292,269.621c-5.177,0-9.389-4.212-9.389-9.389V248.45c0-5.177,4.212-9.389,9.389-9.389c5.178,0,9.39,4.212,9.39,9.389v5.078    v6.704C329.682,265.409,325.47,269.621,320.292,269.621z"/>
		<path d="M288.003,316.173v-1.085c0-4.143-3.357-7.5-7.5-7.5s-7.5,3.357-7.5,7.5v1.085c0,4.143,3.357,7.5,7.5,7.5    S288.003,320.316,288.003,316.173z"/>
		<path d="M188.745,329.519v-63.371c0-37.576-30.57-68.147-68.146-68.147H103.46H88.979H71.84c-12.006,0-23.814,3.168-34.147,9.16    c-3.583,2.078-4.803,6.668-2.726,10.251c2.079,3.583,6.669,4.804,10.251,2.726C53.268,215.468,62.474,213,71.84,213h7.114    l-17.189,58.425c-0.766,2.603-0.066,5.416,1.829,7.356L90.853,306.7c1.411,1.445,3.346,2.261,5.366,2.261s3.955-0.815,5.366-2.261    l27.26-27.919c1.896-1.94,2.595-4.754,1.829-7.356L113.485,213h7.114c29.305,0,53.146,23.842,53.146,53.147v55.871H18.693v-55.871    c0-9.605,2.588-19.014,7.482-27.208c2.124-3.557,0.964-8.161-2.593-10.285c-3.555-2.123-8.16-0.964-10.284,2.593    c-6.284,10.519-9.605,22.588-9.605,34.9v63.371c0,4.143,3.357,7.5,7.5,7.5h170.053    C185.388,337.019,188.745,333.661,188.745,329.519z M115.044,271.446l-18.825,19.28l-18.824-19.28L94.59,213h3.259    L115.044,271.446z"/>
		<path d="M96.218,186.608c17.836-0.147,35.616-6.522,49.49-17.782c2.436-1.977,4.833-4.202,6.002-7.114s0.763-6.671-1.711-8.6    c-2.188-1.706-5.376-1.545-7.911-0.415s-4.6,3.07-6.74,4.837c-16.317,13.471-39.815,17.655-59.779,10.643    c-12.311-4.324-23.196-12.688-30.382-23.579c-9.729-14.746-12.341-33.288-10.671-50.875c29.55,8.75,63.405,1.094,86.314-19.52    c9.61,10.995,22.832,18.781,37.108,21.852c0.933,10.488,0.015,21.138-2.698,31.312c-1.23,4.613-2.447,10.472,1.341,13.378    c2.954,2.266,7.51,1.024,10.008-1.736c2.498-2.76,3.42-6.568,4.107-10.227c2.214-11.793,2.894-23.828,2.938-35.827    c0.057-15.582-1.019-31.484-6.822-45.945c-7.837-19.528-24.382-35.307-44.158-42.495C86.426-8.653,43.345,7.797,27.401,43.278    c-6.809,15.153-8.973,32.017-9.14,48.629c-0.21,20.875,2.877,42.501,14.043,60.14c11.542,18.233,31.46,30.817,52.828,33.834    C88.807,186.4,92.514,186.638,96.218,186.608z M34.434,76.54c-0.097-0.495-0.081-1.029-0.053-1.538    c0.588-10.392,3.862-20.569,9.178-29.499c5.343-8.975,12.771-16.737,21.651-22.263c9.071-5.645,20.556-8.095,31.162-8.008    c11.012,0.09,22.034,3.001,31.506,8.657c0.71,0.424,1.411,0.863,2.103,1.318c18.053,11.863,29.038,33.732,27.777,55.297    c-10.895-2.922-20.724-9.671-27.364-18.79c-1.756-2.412-3.53-5.162-6.387-6.021c-2.236-0.672-4.696,0.012-6.683,1.237    c-1.988,1.225-3.608,2.949-5.282,4.576C92.644,80.349,62.476,87.233,36.826,78.669c-0.75-0.25-1.543-0.547-2.004-1.189    C34.619,77.198,34.5,76.878,34.434,76.54z"/>
		<path d="M249.244,155.22c14.48,0,26.676-9.964,30.094-23.396c76.827,3.434,138.274,67.004,138.274,144.663    c0,79.853-64.965,144.817-144.817,144.817c-31.694,0-61.79-10.049-87.034-29.06c-3.31-2.491-8.011-1.827-10.503,1.479    c-2.492,3.309-1.829,8.011,1.479,10.503c27.865,20.985,61.081,32.077,96.058,32.077c88.124,0,159.817-71.693,159.817-159.817    c0-85.908-68.136-156.189-153.205-159.67c-3.312-13.583-15.576-23.698-30.164-23.698c-17.121,0-31.05,13.93-31.05,31.051    S232.123,155.22,249.244,155.22z M249.244,108.119c8.851,0,16.051,7.2,16.051,16.051c0,8.85-7.2,16.05-16.051,16.05    c-8.85,0-16.05-7.2-16.05-16.05C233.194,115.32,240.395,108.119,249.244,108.119z"/>
		<path d="M439.205,110.077c-44.45-44.449-103.549-68.929-166.41-68.929c-4.143,0-7.5,3.357-7.5,7.5s3.357,7.5,7.5,7.5    c58.854,0,114.187,22.919,155.803,64.536c41.617,41.616,64.536,96.948,64.536,155.803s-22.919,114.187-64.536,155.803    c-41.616,41.617-96.948,64.536-155.803,64.536c-35.818,0-71.373-8.787-102.819-25.41c-28.574-15.105-53.797-36.636-73.291-62.502    c4.393-5.357,7.034-12.204,7.034-19.657c0-17.121-13.929-31.051-31.05-31.051s-31.05,13.93-31.05,31.051s13.929,31.05,31.05,31.05    c4.252,0,8.307-0.861,12-2.415c20.819,27.638,47.765,50.646,78.296,66.786c33.598,17.761,71.576,27.148,109.829,27.148    c62.861,0,121.96-24.479,166.41-68.929c44.449-44.45,68.929-103.549,68.929-166.41S483.654,154.528,439.205,110.077z     M56.619,389.257c0-8.851,7.2-16.051,16.05-16.051s16.05,7.2,16.05,16.051c0,8.85-7.2,16.05-16.05,16.05    S56.619,398.107,56.619,389.257z"/>
	</g>
</g>















</svg>
