<?xml version="1.0" encoding="utf-8"?>
<!-- Generator: Adobe Illustrator 19.0.0, SVG Export Plug-In . SVG Version: 6.00 Build 0)  -->
<svg version="1.1" id="Capa_1" xmlns="http://www.w3.org/2000/svg" xmlns:xlink="http://www.w3.org/1999/xlink" x="0px" y="0px"
	 viewBox="-191 129 640 512" style="enable-background:new -191 129 640 512;" xml:space="preserve">
<style type="text/css">
	.st0{fill:#293E6B;}
</style>
<path class="st0" d="M17,481c-2.4,0-4.8,0.4-7.1,1.1C-3,486.3-16.6,489-31,489s-28-2.7-40.9-6.9c-2.3-0.7-4.7-1.1-7.1-1.1
	c-62.1,0-112.3,50.5-112,112.6c0.1,26.3,21.7,47.4,48,47.4H81c26.3,0,47.9-21.1,48-47.4C129.3,531.5,79.1,481,17,481z M-31,449
	c53,0,96-43,96-96s-43-96-96-96s-96,43-96,96S-84,449-31,449z M401,129H17c-26.5,0-48,22.3-48,49.6V225c23.4,0,45.1,6.8,64,17.8V193
	h352v288h-64v-64H193v64h-76.2c19.1,16.7,33.1,38.7,39.7,64H401c26.5,0,48-22.3,48-49.6V178.6C449,151.3,427.5,129,401,129z"/>
</svg>
