<?xml version="1.0" encoding="utf-8"?>
<!-- Generator: Adobe Illustrator 19.0.0, SVG Export Plug-In . SVG Version: 6.00 Build 0)  -->
<svg version="1.1" id="Capa_1" xmlns="http://www.w3.org/2000/svg" xmlns:xlink="http://www.w3.org/1999/xlink" x="0px" y="0px"
	 viewBox="-287 129 448 512" style="enable-background:new -287 129 448 512;" xml:space="preserve">
<style type="text/css">
	.st0{fill:#404040;}
</style>
<path class="st0" d="M-63,385c70.7,0,128-57.3,128-128S7.7,129-63,129s-128,57.3-128,128S-133.7,385-63,385z M26.6,417H9.9
	C-12.3,427.2-37,433-63,433s-50.6-5.8-72.9-16h-16.7c-74.2,0-134.4,60.2-134.4,134.4V593c0,26.5,21.5,48,48,48h352
	c26.5,0,48-21.5,48-48v-41.6C161,477.2,100.8,417,26.6,417z"/>
</svg>
