<?xml version="1.0" encoding="utf-8"?>
<!-- Generator: Adobe Illustrator 19.0.0, SVG Export Plug-In . SVG Version: 6.00 Build 0)  -->
<svg version="1.1" id="Capa_1" xmlns="http://www.w3.org/2000/svg" xmlns:xlink="http://www.w3.org/1999/xlink" x="0px" y="0px"
	 viewBox="-247 122.7 527.3 524.3" style="enable-background:new -247 122.7 527.3 524.3;" xml:space="preserve">
<g>
	<g>
		<g>
			<polygon points="-21.1,539.1 -47.1,213 -62,224.1 -45,542.4 			"/>
			<path d="M-54,542.4c0,0-12.7-223.8-11.7-347.1L-79,207.7l2.7,338.6L-54,542.4z"/>
			<polygon points="-84.3,248.4 -90.1,248.4 -87.2,542.4 -81.1,536.5 			"/>
			<polygon points="-95.5,200.5 -105.5,190 -111.3,553.6 -95.5,542.4 			"/>
			<polygon points="-111.3,248.4 -115,248.4 -123,542.4 -117.2,539.1 			"/>
			<polygon points="-120.3,213 -134.1,203.1 -158.5,549 -133.6,546.3 			"/>
			<polygon points="-142.6,228.1 -149,234 -176,546.3 -168.1,542.4 			"/>
			<polyline points="-111.6,579.7 -210.1,558.8 -210.1,549 -111.6,571.3 			"/>
			<polyline points="-112.4,579.7 15.2,560.4 15.2,550.5 -112.4,571.3 			"/>
		</g>
		<g>
			<path d="M-11.9,287.7H17v9.1H-0.9v8.9H17v8.9H-0.9v22h-11L-11.9,287.7L-11.9,287.7z"/>
			<path d="M-12,346.2h31.8v9.1H-1v8.8h20.8v8.9H-1V386h20.8v9.1H-12V346.2z"/>
			<path d="M18.5,411.4l-8.2,6.1c-2.9-3.4-5.8-5.1-8.8-5.1c-1.5,0-2.6,0.3-3.6,1c-0.9,0.7-1.4,1.4-1.4,2.2s0.3,1.6,1,2.3
				c0.9,1,3.6,3.1,8.1,6.3c4.2,3,6.8,4.8,7.7,5.6c2.2,1.9,3.8,3.7,4.8,5.5c0.9,1.7,1.4,3.6,1.4,5.7c0,4-1.7,7.3-5,9.9
				c-3.3,2.6-7.6,3.9-12.9,3.9c-4.1,0-7.8-0.9-10.8-2.6c-3.1-1.7-5.7-4.4-7.9-8l9.3-4.7c2.8,4.3,6,6.5,9.7,6.5
				c1.9,0,3.5-0.5,4.8-1.4c1.3-0.9,1.9-2,1.9-3.2c0-1.1-0.5-2.2-1.5-3.3c-1-1.1-3.1-2.8-6.5-5.1c-6.3-4.3-10.4-7.7-12.3-10.1
				c-1.9-2.4-2.8-4.7-2.8-7.1c0-3.4,1.5-6.3,4.6-8.7c3.1-2.4,6.9-3.6,11.4-3.6c2.9,0,5.7,0.6,8.3,1.7
				C12.6,406.3,15.5,408.4,18.5,411.4z"/>
		</g>
	</g>
</g>
</svg>
